<?xml version="1.0" encoding="UTF-8" standalone="no"?><!DOCTYPE svg PUBLIC "-//W3C//DTD SVG 1.1//EN" "http://www.w3.org/Graphics/SVG/1.1/DTD/svg11.dtd"><svg width="100%" height="100%" viewBox="0 0 256 224" version="1.1" xmlns="http://www.w3.org/2000/svg" xmlns:xlink="http://www.w3.org/1999/xlink" xml:space="preserve" xmlns:serif="http://www.serif.com/" style="fill-rule:evenodd;clip-rule:evenodd;stroke-linejoin:round;stroke-miterlimit:1.41421;"><g><path d="M77.602,81.524l48.432,-27.962c1.212,-0.7 2.706,-0.7 3.918,0l48.432,27.962c1.212,0.7 1.959,1.993 1.959,3.393l0,55.924c0,1.4 -0.747,2.694 -1.959,3.394l-48.432,27.962c-1.212,0.7 -2.706,0.7 -3.918,0l-48.432,-27.962c-1.212,-0.7 -1.959,-1.994 -1.959,-3.394l0,-55.924c0,-1.4 0.747,-2.693 1.959,-3.393" style="fill:#8080f2;fill-rule:nonzero;"/><path d="M206,155.407c0,1.481 -0.891,2.849 -2.174,3.59l-73.71,42.527c-1.282,0.741 -2.888,0.741 -4.17,0l-73.767,-42.527c-1.282,-0.741 -2.179,-2.109 -2.179,-3.59l0,-85.055c0,-1.481 0.884,-2.849 2.167,-3.59l73.707,-42.527c1.282,-0.741 2.886,-0.741 4.168,0l73.773,42.527c1.282,0.741 2.185,2.109 2.185,3.59l0,85.055Zm47.917,-48.41l-57.867,-100.672c-2.102,-3.64 -5.986,-6.325 -10.189,-6.325l-115.735,0c-4.204,0 -8.088,2.685 -10.19,6.325l-57.867,100.45c-2.102,3.641 -2.102,8.237 0,11.877l57.867,99.847c2.102,3.64 5.986,5.501 10.19,5.501l115.735,0c4.203,0 8.087,-1.805 10.189,-5.446l57.867,-100.01c2.102,-3.64 2.102,-7.907 0,-11.547" style="fill:#4b32c3;fill-rule:nonzero;"/></g></svg>