<?xml version="1.0" encoding="UTF-8" standalone="no"?><!DOCTYPE svg PUBLIC "-//W3C//DTD SVG 1.1//EN" "http://www.w3.org/Graphics/SVG/1.1/DTD/svg11.dtd"><svg width="100%" height="100%" viewBox="0 0 780 220" version="1.1" xmlns="http://www.w3.org/2000/svg" xmlns:xlink="http://www.w3.org/1999/xlink" xml:space="preserve" xmlns:serif="http://www.serif.com/" style="fill-rule:evenodd;clip-rule:evenodd;stroke-linejoin:round;stroke-miterlimit:1.41421;"><g id="logo_jpen"><path id="S" d="M0,0l0,60l80,0l0,20l-80,0l0,20l100,0l0,-60l-80,0l0,-20l80,0l0,-20l-100,0Z" style="fill:#212121;"/><path id="n" d="M120,40l0,60l20,0l0,-40l20,0l0,40l20,0l0,-60l-60,0Z" style="fill:#212121;"/><g id="O"><path d="M120,0l0,20l80,0l0,80l100,0l0,-100l-20,0l0,80l-60,0l0,-60l60,0l0,-20l-160,0Z" style="fill:#212121;"/><rect x="240" y="40" width="20" height="20" style="fill:#212121;"/></g><g id="WM"><rect x="440" y="0" width="20" height="20" style="fill:#212121;"/><path d="M320,0l0,20l80,0l0,80l100,0l0,-80l20,0l0,80l20,0l0,-80l20,0l0,80l20,0l0,-100l-100,0l0,80l-20,0l0,-40l-20,0l0,40l-20,0l0,-80l-100,0Z" style="fill:#212121;"/></g><g id="emoji"><rect x="680" y="120" width="20" height="20" style="fill:#39d8d0;"/><rect x="760" y="120" width="20" height="20" style="fill:#39d8d0;"/><rect x="680" y="180" width="20" height="20" style="fill:#39d8d0;"/><rect x="760" y="180" width="20" height="20" style="fill:#39d8d0;"/><rect x="700" y="200" width="60" height="20" style="fill:#39d8d0;"/></g><g id="マ"><rect x="460" y="200" width="20" height="20" style="fill:#212121;"/><path d="M400,120l0,20l80,0l0,20l-60,0l0,20l20,0l0,20l20,0l0,-20l40,0l0,-60l-100,0Z" style="fill:#212121;"/></g><g id="ン"><rect x="520" y="120" width="40" height="20" style="fill:#212121;"/><path d="M520,200l0,20l100,0l0,-60l-20,0l0,40l-80,0Z" style="fill:#212121;"/></g><g id="a"><rect x="600" y="0" width="20" height="20" style="fill:#212121;"/><rect x="640" y="0" width="20" height="20" style="fill:#212121;"/><path d="M600,40l0,20l40,0l0,20l-40,0l0,60l60,0l0,-20l-40,0l0,-20l20,0l0,20l20,0l0,-20l0,-60l-60,0Z" style="fill:#212121;"/></g><path id="_2" serif:id="2" d="M320,40l0,20l40,0l0,20l-40,0l0,60l60,0l0,-20l-40,0l0,-20l40,0l0,-60l-60,0Z" style="fill:#39d8d0;"/><path id="N" d="M680,100l20,0l0,-80l20,0l0,80l60,0l0,-100l-20,0l0,80l-20,0l0,-80l-60,0l0,100Z" style="fill:#212121;"/><path id="ス" d="M0,120l0,20l80,0l0,20l-60,0l0,40l-20,0l0,20l40,0l0,-40l20,0l0,40l40,0l0,-20l-20,0l0,-20l20,0l0,-60l-100,0Z" style="fill:#212121;"/><path id="ノ" d="M120,200l0,20l100,0l0,-100l-20,0l0,80l-80,0Z" style="fill:#212121;"/><rect id="_ー" serif:id="ー" x="240" y="160" width="140" height="20" style="fill:#212121;"/></g></svg>