<?xml version="1.0" encoding="UTF-8" standalone="no"?><!DOCTYPE svg PUBLIC "-//W3C//DTD SVG 1.1//EN" "http://www.w3.org/Graphics/SVG/1.1/DTD/svg11.dtd"><svg width="100%" height="100%" viewBox="0 0 460 460" version="1.1" xmlns="http://www.w3.org/2000/svg" xmlns:xlink="http://www.w3.org/1999/xlink" xml:space="preserve" xmlns:serif="http://www.serif.com/" style="fill-rule:evenodd;clip-rule:evenodd;stroke-linejoin:round;stroke-miterlimit:1.41421;"><g id="logo_site"><path id="S" d="M460,360l0,20l-80,0l0,20l80,0l0,60l-100,0l0,-20l80,0l0,-20l-80,0l0,-60l100,0" style="fill:#212121;"/><g id="C"><path d="M120,460l100,0l0,-20l-80,0l0,-60l80,0l0,-20l-100,0l0,100" style="fill:#212121;"/><path d="M200,420l20,0l0,-20l-20,0l0,20Z" style="fill:#39d8d0;"/></g><g id="I"><path d="M240,460l100,0l0,-20l-40,0l0,-60l40,0l0,-20l-100,0l0,20l40,0l0,60l-40,0l0,20" style="fill:#212121;"/><path d="M320,420l20,0l0,-20l-20,0l0,20Z" style="fill:#39d8d0;"/><path d="M240,420l20,0l0,-20l-20,0l0,20Z" style="fill:#39d8d0;"/></g><g id="H"><path d="M0,360l0,100l20,0l0,-40l60,0l0,40l20,0l0,-100l-20,0l0,40l-60,0l0,-40l-20,0" style="fill:#212121;"/><rect x="40" y="440" width="20" height="20" style="fill:#39d8d0;"/><rect x="40" y="360" width="20" height="20" style="fill:#39d8d0;"/></g><g id="P"><path d="M360,240l0,20l80,0l0,20l-60,0l0,-20l-20,0l0,80l20,0l0,-40l80,0l0,-60l-100,0" style="fill:#212121;"/><rect x="440" y="320" width="20" height="20" style="fill:#39d8d0;"/></g><path id="M" d="M120,120l0,100l20,0l0,-80l20,0l0,80l20,0l0,-80l20,0l0,80l20,0l0,-100l-100,0" style="fill:#212121;"/><g id="A"><path d="M240,240l0,20l80,0l0,20l-60,0l0,-20l-20,0l0,80l20,0l0,-40l60,0l0,40l20,0l0,-100l-100,0" style="fill:#212121;"/><rect x="280" y="320" width="20" height="20" style="fill:#39d8d0;"/></g><path id="R" d="M120,240l0,20l80,0l0,20l-60,0l0,-20l-20,0l0,80l20,0l0,-40l20,0l0,40l60,0l0,-20l-40,0l0,-20l40,0l0,-60l-100,0" style="fill:#212121;"/><path id="G" d="M0,340l100,0l0,-60l-20,0l-40,0l0,20l40,0l0,20l-60,0l0,-60l80,0l0,-20l-100,0l0,100" style="fill:#212121;"/><path id="N" d="M460,120l-20,0l0,80l-20,0l0,-80l-60,0l0,100l20,0l0,-80l20,0l0,80l60,0l0,-100" style="fill:#212121;"/><path id="a" d="M240,120l0,20l80,0l0,20l-80,0l0,60l100,0l0,-20l-80,0l0,-20l60,0l0,20l20,0l0,-80l-100,0" style="fill:#212121;"/><path id="W" d="M100,220l0,-100l-20,0l0,80l-20,0l0,-80l-20,0l0,80l-20,0l0,-80l-20,0l0,100l100,0" style="fill:#212121;"/><path id="_2" serif:id="2" d="M360,0l0,20l80,0l0,20l-80,0l0,60l100,0l0,-20l-80,0l0,-20l80,0l0,-60l-100,0" style="fill:#212121;"/><g id="O"><path d="M240,0l0,100l100,0l0,-100l-20,0l0,80l-60,0l0,-60l60,0l0,-20l-80,0Z" style="fill:#212121;"/><rect x="280" y="40" width="20" height="20" style="fill:#39d8d0;"/></g><g id="n"><path d="M120,0l0,100l20,0l0,-80l60,0l0,80l20,0l0,-100l-100,0" style="fill:#212121;"/><rect x="160" y="80" width="20" height="20" style="fill:#39d8d0;"/></g><path id="S1" serif:id="S" d="M100,0l0,20l-80,0l0,20l80,0l0,60l-100,0l0,-20l80,0l0,-20l-80,0l0,-60l100,0" style="fill:#212121;"/></g></svg>