<?xml version="1.0" encoding="UTF-8" standalone="no"?><!DOCTYPE svg PUBLIC "-//W3C//DTD SVG 1.1//EN" "http://www.w3.org/Graphics/SVG/1.1/DTD/svg11.dtd"><svg width="100%" height="100%" viewBox="0 0 730 100" version="1.1" xmlns="http://www.w3.org/2000/svg" xmlns:xlink="http://www.w3.org/1999/xlink" xml:space="preserve" xmlns:serif="http://www.serif.com/" style="fill-rule:evenodd;clip-rule:evenodd;stroke-linejoin:round;stroke-miterlimit:1.41421;"><path id="pixiv_fanbox_1" d="M55.923,45.729c-1.498,4.02 -3.994,7.035 -6.491,9.547c-2.496,2.513 -5.492,4.523 -8.987,5.528c-3.496,1.005 -6.991,2.01 -10.486,2.01l-8.988,0l0,34.673l-20.971,0l0,-95.477l29.46,0c3.495,0 6.99,0.503 10.485,1.508c3.495,1.005 6.491,2.512 9.487,5.025c2.996,2.512 4.993,5.527 6.991,9.045c1.997,3.518 2.496,8.543 2.496,14.07c-0.499,5.528 -0.998,10.051 -2.996,14.071Zm-20.472,-22.613c-1.997,-2.01 -4.493,-3.015 -7.489,-3.015l-6.991,0l0,25.125l6.991,0c2.996,0 5.492,-1.005 7.489,-3.517c1.998,-2.011 2.996,-5.528 2.996,-9.548c0,-4.02 -0.998,-7.035 -2.996,-9.045Zm34.453,74.371l0,-95.477l21.471,0l0,95.477l-21.471,0Zm78.892,0l-12.982,-31.658l-12.982,31.658l-22.469,0l23.467,-49.748l-21.47,-45.226l22.469,0l11.484,29.145l11.984,-29.145l21.47,0l-21.47,45.226l23.468,50.251l-22.969,0l0,-0.503Zm31.956,0l0,-95.477l21.471,0l0,95.477l-21.471,0Zm79.891,0l-26.963,0l-22.969,-95.477l23.968,0l12.982,69.849l0.499,0l12.483,-69.849l23.468,0l-23.468,95.477Zm77.394,-75.879l0,19.598l22.469,0l0,18.593l-22.469,0l0,38.191l-21.471,0l0,-95.477l45.937,0l0,19.598l-24.466,0l0,-0.503Zm73.399,75.879l-3.994,-17.588l-21.471,0l-3.994,17.588l-21.471,0l22.969,-95.477l26.963,0l22.968,95.477l-21.97,0Zm-13.98,-74.874l-0.5,0l-7.989,40.704l15.978,0l-7.489,-40.704Zm84.883,74.874l-21.97,-58.291l-0.499,0l0.499,58.291l-18.974,0l0,-95.477l23.468,0l21.97,58.794l0.499,0l-0.499,-58.794l18.475,0l0,95.477l-22.969,0Zm93.872,-14.572c-1.498,3.517 -3.995,6.03 -6.491,8.542c-2.497,2.513 -5.493,3.518 -8.988,4.523c-3.495,1.005 -6.491,1.507 -9.986,1.507l-31.457,0l0,-95.477l28.461,0c2.996,0 5.991,0.503 9.487,1.005c3.495,0.503 6.491,2.01 8.987,3.518c2.497,1.507 4.994,4.02 6.991,7.537c1.997,3.015 2.496,7.538 2.496,12.563c0,5.528 -0.998,10.05 -3.495,13.568c-2.496,3.518 -4.993,6.03 -8.488,7.538c1.997,0.502 3.495,1.507 5.492,2.512c1.998,1.005 3.495,2.513 4.993,4.523c1.498,2.01 2.497,4.02 3.496,6.533c0.998,2.512 1.498,5.527 1.498,9.045c-0.5,5.025 -1.498,9.045 -2.996,12.563Zm-22.47,-60.804c-1.997,-1.508 -4.493,-2.513 -6.99,-2.513l-7.49,0l0,20.603l7.49,0c2.497,0 4.993,-1.005 6.99,-2.513c1.998,-1.507 2.996,-4.522 2.996,-8.04c0,-3.015 -0.998,-6.03 -2.996,-7.537Zm3.496,40.703c-0.5,-1.507 -1.498,-2.512 -2.497,-3.518c-0.999,-1.005 -2.496,-1.507 -3.994,-2.01c-1.498,-0.502 -2.497,-0.502 -3.995,-0.502l-7.49,0l0,23.115l7.989,0c2.996,0 5.992,-1.005 7.989,-3.015c1.998,-2.01 3.496,-4.522 3.496,-8.542c-0.5,-2.513 -0.5,-4.02 -1.498,-5.528Zm98.365,7.538c-1.498,6.03 -3.995,11.558 -6.991,16.08c-2.995,4.523 -6.99,8.04 -11.484,10.05c-4.494,2.01 -9.487,3.518 -14.979,3.518c-5.493,0 -10.486,-1.005 -14.98,-3.518c-4.494,-2.512 -8.488,-6.03 -11.484,-10.05c-2.996,-4.522 -5.492,-9.548 -6.99,-16.08c-3.332,-13.53 -3.332,-27.676 0,-41.206c1.498,-6.03 3.994,-11.558 6.99,-15.578c2.996,-4.523 6.99,-7.538 11.484,-10.05c4.494,-2.513 9.487,-3.518 15.479,-3.518c5.493,0 10.486,1.005 14.98,3.518c4.493,2.512 8.488,5.527 11.484,10.05c2.996,4.522 5.492,9.548 6.99,15.578c1.498,6.03 2.497,13.065 2.497,20.603c0,7.537 -1.498,14.07 -2.996,20.603Zm-20.472,-32.161c-0.499,-3.518 -1.498,-6.533 -2.497,-9.045c-0.998,-2.513 -2.496,-4.523 -4.493,-6.03c-1.998,-1.508 -3.995,-2.01 -6.492,-2.01c-2.496,0 -4.493,0.502 -6.491,2.01c-1.997,1.507 -3.495,3.517 -4.494,6.03c-0.998,2.512 -1.997,5.527 -2.496,9.045c-0.499,3.518 -0.999,7.538 -0.999,11.558c0,4.02 0.5,8.04 0.999,11.558c0.499,3.517 1.498,6.532 2.496,9.045c0.999,2.512 2.497,4.522 4.494,6.03c1.998,1.507 3.995,2.512 6.491,2.512c2.497,0 4.494,-1.005 6.492,-2.512c1.997,-1.508 3.495,-3.518 4.493,-6.03c0.999,-2.513 1.998,-5.528 2.497,-9.045c0.499,-3.518 0.999,-7.538 0.999,-11.558c0,-4.02 -0.5,-8.04 -0.999,-11.558Zm71.402,59.296l-12.982,-31.658l-12.982,31.658l-22.47,0l23.468,-49.748l-21.47,-45.226l22.469,0l11.484,29.145l11.984,-29.145l21.97,0l-21.471,45.226l23.468,50.251l-23.468,0l0,-0.503Z" style="fill:#2c333c;fill-rule:nonzero;"/></svg>