<?xml version="1.0" encoding="UTF-8" standalone="no"?><!DOCTYPE svg PUBLIC "-//W3C//DTD SVG 1.1//EN" "http://www.w3.org/Graphics/SVG/1.1/DTD/svg11.dtd"><svg width="100%" height="100%" viewBox="0 0 480 248" version="1.1" xmlns="http://www.w3.org/2000/svg" xmlns:xlink="http://www.w3.org/1999/xlink" xml:space="preserve" xmlns:serif="http://www.serif.com/" style="fill-rule:evenodd;clip-rule:evenodd;stroke-linejoin:round;stroke-miterlimit:1.41421;"><path id="pixiv_fanbox_2" d="M141.943,49.657c-1.866,4.394 -4.354,8.021 -7.463,10.882c-3.11,2.86 -6.633,4.981 -10.572,6.36c-3.939,1.38 -7.93,2.07 -11.971,2.07l-10.728,0l0,39.541l-24.409,0l0,-108.51l34.204,0c3.938,0 7.903,0.562 11.893,1.686c3.967,1.112 7.669,3.015 10.883,5.594c3.265,2.605 5.908,6.105 7.93,10.499c2.02,4.393 3.031,9.808 3.031,16.245c0,6.029 -0.933,11.24 -2.798,15.633Zm-24.098,-25.747c-2.384,-2.146 -5.286,-3.218 -8.707,-3.218l-7.929,0l0,28.353l7.93,0c3.42,0 6.322,-1.251 8.706,-3.755c2.383,-2.503 3.575,-6.105 3.575,-10.805c0,-4.904 -1.192,-8.43 -3.575,-10.575Zm40.111,84.601l0,-108.511l25.031,0l0,108.51l-25.03,0l-0.001,0.001Zm91.573,0l-15.236,-35.863l-15.08,35.863l-25.965,0l27.052,-56.861l-24.875,-51.65l25.964,0l13.526,32.952l13.681,-32.952l25.498,0l-25.031,51.496l27.363,57.014l-26.897,0l0,0.001Zm37.002,0l0,-108.511l25.031,0l0,108.51l-25.03,0l-0.001,0.001Zm92.817,0l-31.56,0l-26.587,-108.511l28.14,0l14.925,79.39l0.311,0l14.771,-79.39l27.052,0l-27.052,108.51l0,0.001Zm-354.31,49.855l0,22.177l26.282,0l0,21.1l-26.126,0l0,43.432l-25.194,0l0,-109.042l53.653,0l0,22.332l-28.615,0l0,0.001Zm85.378,86.709l-4.51,-19.868l-24.726,0l-4.51,19.868l-24.883,0l26.749,-109.041l31.258,0l26.593,109.04l-25.97,0l-0.001,0.001Zm-16.484,-85.325l-0.622,0l-9.331,46.358l18.817,0l-8.864,-46.358Zm98.605,85.323l-25.504,-66.38l-0.467,0l0.622,66.38l-22.238,0l0,-109.04l27.37,0l25.35,67.303l0.466,0l-0.467,-67.303l21.462,0l0,109.04l-26.594,0Zm109.276,-16.403c-1.918,3.953 -4.432,7.136 -7.542,9.55c-3.11,2.412 -6.61,4.158 -10.498,5.236c-3.822,1.069 -7.772,1.613 -11.741,1.617l-36.546,0l0,-109.04l32.97,0c3.42,0 7.05,0.36 10.885,1.078c3.836,0.719 7.335,2.08 10.498,4.081c3.162,2.002 5.805,4.852 7.93,8.548c2.126,3.696 3.189,8.47 3.189,14.323c0,6.469 -1.322,11.628 -3.966,15.478c-2.644,3.85 -5.883,6.649 -9.72,8.394c2.074,0.821 4.148,1.746 6.221,3.08c2.074,1.335 3.94,3.055 5.599,5.16c1.659,2.105 3.006,4.646 4.043,7.623c1.037,2.978 1.555,6.366 1.555,10.165c0,5.853 -0.959,10.755 -2.877,14.708l0,-0.001Zm-26.36,-69.536c-2.384,-1.746 -5.184,-2.618 -8.398,-2.618l-8.397,0l0,23.563l8.553,0c3.007,0 5.728,-0.924 8.165,-2.772c2.436,-1.848 3.654,-4.928 3.654,-9.24c0,-4.21 -1.192,-7.188 -3.577,-8.933Zm4.433,46.28c-0.778,-1.694 -1.815,-3.08 -3.11,-4.158c-1.283,-1.071 -2.762,-1.882 -4.355,-2.387c-1.607,-0.513 -3.188,-0.77 -4.743,-0.77l-9.02,0l0,26.49l9.33,0c3.63,0 6.714,-1.078 9.254,-3.234c2.54,-2.156 3.81,-5.39 3.81,-9.703c0,-2.464 -0.389,-4.543 -1.166,-6.237l0,-0.001Zm114.096,8.471c-1.97,7.136 -4.769,13.22 -8.397,18.25c-3.63,5.032 -8.061,8.933 -13.297,11.706c-5.236,2.772 -11.12,4.158 -17.651,4.158c-6.532,0 -12.415,-1.386 -17.651,-4.158c-5.236,-2.773 -9.668,-6.674 -13.297,-11.705c-3.629,-5.031 -6.428,-11.115 -8.398,-18.25c-1.97,-7.137 -2.954,-15.017 -2.954,-23.642c0,-8.624 0.959,-16.453 2.877,-23.487c1.918,-7.033 4.69,-13.04 8.32,-18.02c3.628,-4.979 8.06,-8.83 13.296,-11.55c5.236,-2.721 11.171,-4.081 17.807,-4.081c6.532,0 12.415,1.36 17.65,4.08c5.237,2.722 9.669,6.572 13.298,11.552c3.628,4.98 6.428,10.986 8.397,18.02c1.97,7.033 2.955,14.862 2.955,23.486c0,8.625 -0.985,16.505 -2.955,23.641Zm-23.638,-36.809c-0.726,-4.055 -1.788,-7.572 -3.188,-10.55c-1.4,-2.977 -3.136,-5.313 -5.21,-7.007c-2.073,-1.694 -4.51,-2.541 -7.31,-2.541c-2.798,0 -5.26,0.847 -7.386,2.54c-2.126,1.695 -3.888,4.03 -5.288,7.008c-1.4,2.978 -2.436,6.495 -3.11,10.55c-0.674,4.056 -1.01,8.445 -1.01,13.168c0,4.723 0.336,9.138 1.01,13.245c0.674,4.107 1.71,7.65 3.11,10.627c1.4,2.978 3.162,5.34 5.288,7.085c2.125,1.745 4.588,2.618 7.387,2.618c2.8,0 5.236,-0.873 7.31,-2.618c2.073,-1.746 3.81,-4.107 5.209,-7.085c1.4,-2.977 2.462,-6.52 3.188,-10.627c0.726,-4.107 1.089,-8.522 1.089,-13.245c0,-4.723 -0.363,-9.112 -1.089,-13.168Zm82.752,67.997l-15.24,-36.04l-15.086,36.04l-25.97,0l27.06,-57.139l-24.883,-51.902l25.971,0l13.53,33.113l13.686,-33.113l25.504,0l-25.038,51.748l27.37,57.294l-26.904,0l0,-0.001Z" style="fill:#2c333c;"/></svg>