<?xml version="1.0" encoding="UTF-8" standalone="no"?><!DOCTYPE svg PUBLIC "-//W3C//DTD SVG 1.1//EN" "http://www.w3.org/Graphics/SVG/1.1/DTD/svg11.dtd"><svg width="100%" height="100%" viewBox="0 0 578 200" version="1.1" xmlns="http://www.w3.org/2000/svg" xmlns:xlink="http://www.w3.org/1999/xlink" xml:space="preserve" xmlns:serif="http://www.serif.com/" style="fill-rule:evenodd;clip-rule:evenodd;stroke-linejoin:round;stroke-miterlimit:1.41421;"><g id="qiita"><path d="M94.34,17.389c-37.825,0 -76.951,29.24 -76.951,78.169c0,37.943 29.237,77.188 78.164,77.188c37.12,0 77.185,-29.7 77.185,-77.681c0,-43.556 -34.437,-77.676 -78.398,-77.676m56.063,155.216c-16.157,11.47 -34.998,17.522 -54.607,17.522c-26.655,0 -51.199,-10.171 -69.112,-28.64c-16.957,-17.487 -26.684,-41.429 -26.684,-65.688c0,-59.965 47.967,-95.799 94.34,-95.799c26.653,0 51.196,10.173 69.107,28.645c16.957,17.489 26.684,41.434 26.684,65.694c0,25.569 -9.408,49.258 -26.537,66.958l26.457,26.448l-12.254,12.255l-27.394,-27.395Z" style="fill:#59bb0c;fill-rule:nonzero;"/><path d="M242.822,37.772c-7.476,0 -13.793,-6.315 -13.793,-13.79c0,-7.475 6.317,-13.791 13.793,-13.791c7.475,0 13.792,6.316 13.792,13.791c0,7.475 -6.317,13.79 -13.792,13.79m-7.965,16.573l16.417,0l0,131.421l-16.417,0l0,-131.421Z" style="fill:#59bb0c;fill-rule:nonzero;"/><path d="M308.406,37.772c-7.477,0 -13.792,-6.315 -13.792,-13.79c0,-7.475 6.315,-13.791 13.792,-13.791c7.468,0 13.777,6.316 13.777,13.791c0,7.475 -6.309,13.79 -13.777,13.79m-7.97,16.573l16.413,0l0,131.421l-16.413,0l0,-131.421Z" style="fill:#59bb0c;fill-rule:nonzero;"/><path d="M413.253,188.44c-29.89,0 -47.751,-23.545 -47.751,-46.306l0,-123.697l16.41,0l0,35.908l57.268,0l0,16.425l-57.268,0l0,71.125c0,14.809 11.634,30.124 31.105,30.124c5.285,0 10.705,-1.497 15.672,-4.33l1.846,-1.054l8.198,14.087l-1.798,1.092c-7.048,4.272 -15.456,6.626 -23.682,6.626" style="fill:#59bb0c;fill-rule:nonzero;"/><path d="M519.348,66.639c-25.781,0 -52.447,19.98 -52.447,53.418c0,25.781 19.98,52.448 53.415,52.448c15.582,0 30.592,-7.087 40.313,-18.998l0,-67.873c-9.961,-12.082 -24.963,-18.995 -41.281,-18.995m1.212,122.276c-43.865,0 -70.077,-34.89 -70.077,-68.621c0,-43.861 34.891,-70.07 68.623,-70.07c17.334,0 31.559,5.87 41.523,17.053l0,-12.933l16.419,0l0,131.423l-16.419,0l0,-14.268c-9.875,11.422 -23.6,17.416 -40.069,17.416" style="fill:#59bb0c;fill-rule:nonzero;"/></g></svg>