<?xml version="1.0" encoding="UTF-8" standalone="no"?><!DOCTYPE svg PUBLIC "-//W3C//DTD SVG 1.1//EN" "http://www.w3.org/Graphics/SVG/1.1/DTD/svg11.dtd">
<svg width="100%" height="100%" viewBox="0 0 398 398" version="1.1"
	xmlns="http://www.w3.org/2000/svg"
	xmlns:xlink="http://www.w3.org/1999/xlink" xml:space="preserve"
	xmlns:serif="http://www.serif.com/" style="fill-rule:evenodd;clip-rule:evenodd;stroke-linecap:round;stroke-linejoin:round;stroke-miterlimit:1.5;">
	<g>
		<path d="M103,231l32,32l64,-64l64,64l32,-32" style="fill:none;stroke:#fff;stroke-width:13.29px;"/>

		<path d="M135,71c0,-35.323 28.677,-64 64,-64c35.323,0 64,28.677 64,64" style="fill:none;stroke:#fff;stroke-width:13.29px;"/>

		<path d="M7,391l64,-64l64,64l64,-64l64,64l64,-64l64,64l0,-96" style="fill:none;stroke:#fff;stroke-width:13.29px;"/>

		<circle cx="71" cy="199" r="64" style="fill:none;stroke:#fff;stroke-width:13.29px;"/>

		<circle cx="327" cy="199" r="64" style="fill:none;stroke:#fff;stroke-width:13.29px;"/>

		<path d="M199,71l-64,64" style="fill:none;stroke:#fff;stroke-width:13.29px;"/>

		<path d="M135,7l-128,128l128,0l-128,128" style="fill:none;stroke:#fff;stroke-width:13.29px;"/>

		<path d="M391,199l0,96" style="fill:none;stroke:#fff;stroke-width:13.29px;"/>

		<path d="M391,135l0,64" style="fill:none;stroke:#fff;stroke-width:13.29px;"/>

		<path d="M199,71l0,192" style="fill:none;stroke:#fff;stroke-width:13.29px;"/>

		<path d="M327,391l-64,-64" style="fill:none;stroke:#fff;stroke-width:13.29px;"/>

		<path d="M263,71l0,256" style="fill:none;stroke:#fff;stroke-width:13.29px;"/>

		<path d="M295,103l64,0" style="fill:none;stroke:#fff;stroke-width:13.29px;"/>

		<path d="M295,39l64,0" style="fill:none;stroke:#fff;stroke-width:13.29px;"/>
</g>
</svg>
