<?xml version="1.0" encoding="UTF-8" standalone="no"?><!DOCTYPE svg PUBLIC "-//W3C//DTD SVG 1.1//EN" "http://www.w3.org/Graphics/SVG/1.1/DTD/svg11.dtd"><svg width="100%" height="100%" viewBox="0 0 390 390" version="1.1" xmlns="http://www.w3.org/2000/svg" xmlns:xlink="http://www.w3.org/1999/xlink" xml:space="preserve" xmlns:serif="http://www.serif.com/" style="fill-rule:evenodd;clip-rule:evenodd;stroke-linecap:round;stroke-linejoin:round;stroke-miterlimit:1.5;"><g id="sno2wman"><path d="M99,227l32,32l64,-64l64,64l32,-32" style="fill:none;stroke:#000;stroke-width:5px;"/><circle cx="67" cy="195" r="64" style="fill:none;stroke:#000;stroke-width:5px;"/><circle cx="323" cy="195" r="64" style="fill:none;stroke:#000;stroke-width:5px;"/><path d="M195,67l-64,64" style="fill:none;stroke:#000;stroke-width:5px;"/><path d="M131,3l-128,128l128,0l-128,128" style="fill:none;stroke:#000;stroke-width:5px;"/><path d="M387,195l0,96" style="fill:none;stroke:#000;stroke-width:5px;"/><path d="M3,387l64,-64l64,64l64,-64l64,64l64,-64l64,64l0,-96l0,-96l0,-64" style="fill:none;stroke:#000;stroke-width:5px;"/><path d="M195,67l0,192" style="fill:none;stroke:#000;stroke-width:5px;"/><path d="M131,67c0,-35.323 28.677,-64 64,-64c35.323,0 64,28.677 64,64l0,256l64,64" style="fill:none;stroke:#000;stroke-width:5px;"/><path d="M291,99l64,0" style="fill:none;stroke:#000;stroke-width:5px;"/><path d="M291,35l64,0" style="fill:none;stroke:#000;stroke-width:5px;"/></g></svg>