<?xml version="1.0" encoding="UTF-8" standalone="no"?><!DOCTYPE svg PUBLIC "-//W3C//DTD SVG 1.1//EN" "http://www.w3.org/Graphics/SVG/1.1/DTD/svg11.dtd"><svg width="100%" height="100%" viewBox="0 0 679 753" version="1.1" xmlns="http://www.w3.org/2000/svg" xmlns:xlink="http://www.w3.org/1999/xlink" xml:space="preserve" xmlns:serif="http://www.serif.com/" style="fill-rule:evenodd;clip-rule:evenodd;stroke-linejoin:round;stroke-miterlimit:1.41421;"><g><path d="M657.9,580.2l-305.1,172.6l0,-134.4l190.1,-104.6l115,66.4Zm20.9,-18.9l0,-360.9l-111.6,64.5l0,232l111.6,64.4Zm-657.9,18.9l305.1,172.6l0,-134.4l-190.2,-104.6l-114.9,66.4Zm-20.9,-18.9l0,-360.9l111.6,64.5l0,232l-111.6,64.4Zm13.1,-384.3l312.9,-177l0,129.9l-200.5,110.3l-1.6,0.9l-110.8,-64.1Zm652.6,0l-312.9,-177l0,129.9l200.5,110.2l1.6,0.9l110.8,-64Z" style="fill:#8ed6fb;fill-rule:nonzero;"/><path d="M326,587.8l-187.6,-103.2l0,-204.3l187.6,108.3l0,199.2Zm26.8,0l187.6,-103.1l0,-204.4l-187.6,108.3l0,199.2Zm-201.7,-331.1l188.3,-103.5l188.3,103.5l-188.3,108.7l-188.3,-108.7Z" style="fill:#1c78c0;fill-rule:nonzero;"/></g></svg>