<?xml version="1.0" encoding="UTF-8" standalone="no"?><!DOCTYPE svg PUBLIC "-//W3C//DTD SVG 1.1//EN" "http://www.w3.org/Graphics/SVG/1.1/DTD/svg11.dtd"><svg width="100%" height="100%" viewBox="0 0 1355 528" version="1.1" xmlns="http://www.w3.org/2000/svg" xmlns:xlink="http://www.w3.org/1999/xlink" xml:space="preserve" xmlns:serif="http://www.serif.com/" style="fill-rule:evenodd;clip-rule:evenodd;stroke-linejoin:round;stroke-miterlimit:1.41421;"><g><path d="M929.3,46.8l-0.3,-2.9l-4.7,0.4l0.3,2.9l4.7,-0.4Zm31.6,76l0.1,1.6l3.3,-0.3c-0.1,-1 0.3,-2.6 1,-4.6l-0.3,-2.9c-1.4,0.1 -2.8,2.2 -4.1,6.2Zm-123.3,95.7c-0.2,-2.7 -8.6,-13.2 -25.2,-31.7c-0.3,-3.4 5.4,-8.5 17.1,-15.2l33.4,-29.1c7.5,-9.5 11.9,-24.9 13.2,-46.3l-0.4,-4.9c-1.3,-14.8 -12,-26.7 -32.3,-35.8c-12,-8.1 -33.6,-12.6 -64.8,-13.4c-25.8,2.2 -59.5,11.4 -101,27.7c-11.4,8.2 -24.4,16.4 -39,24.6l0.2,2.5c0.9,-0.1 2.3,-0.6 3.9,-1.7c1.7,-0.2 2.7,0.6 2.8,2.2l2.5,-1.3l1.2,-0.1l0.1,1.1c0.1,1.3 -8.9,8.4 -27.1,21.1l1.4,2.6l-1.2,0.1l-3,-1.1c0.1,0.9 -1.2,1.5 -3.7,1.7l0.1,1.1l2.9,3.6c-0.9,0.1 -2.3,-0.3 -4.2,-1c-4.2,0.4 -8.3,2.6 -12.4,6.8l1.7,-7.4c6.1,-26.3 10.3,-49.6 12.5,-69.8l-0.3,-1.3c-4.2,-2.7 -8.3,-6.5 -12.1,-11.3c0.1,-3.1 0.1,-4.9 0,-5.3l-0.3,-1.1l-1.2,0.3c-13.2,19.8 -38.6,53.6 -76.3,101.4c-28.7,34 -43.5,52.9 -44.4,56.7c-11.7,12.1 -17.3,19.4 -16.7,21.9c-3.1,2 -4.4,4 -3.9,6.2c-0.9,0.2 -1.5,-0.1 -1.7,-1c-5,8.1 -12.4,13.3 -22.3,15.6l-10.4,2.4c-1.4,0.3 -2.1,1.3 -2,3l0.3,1.3l3.9,-0.9l0.3,1.1l-8.8,3.4l-15.6,3.6l-8.2,0.5c-1.2,1.2 6.5,-0.1 3.5,0.6l-10.2,2.4c-6.2,1.4 -9.6,0.9 -10.2,-1.6l-1.2,0.3c0.2,1.1 0.3,1.9 0.1,2.6l-0.6,-2.5l-8.2,1.9c-0.6,-3.8 -11.7,-17.6 -33.2,-41.4c-0.4,-4.6 7.2,-11.3 22.7,-20l43.8,-38.5c9.8,-12.6 15.6,-32.8 17.5,-60.6l-0.6,-6.5c-1.7,-19.6 -15.9,-35.4 -42.6,-47.6c-15.8,-10.7 -44.2,-16.4 -85.2,-17.3c-34,2.9 -78.4,15 -133,36.1c-15,10.9 -32.1,21.7 -51.3,32.4l0.3,3.4c1.3,-0.1 3,-0.8 5.1,-2c2.2,-0.2 3.4,0.8 3.6,2.8l3.4,-1.9l1.7,-0.1l0.1,1.6c0.1,1.6 -11.8,10.9 -35.9,27.9l1.9,3l-1.7,0.1l-3.7,-1.3c0.1,1 -1.6,1.7 -5.1,2l0.2,1.8l4,4.4c-1.3,0.1 -3.1,-0.3 -5.4,-1.1c-7.8,0.7 -15.4,6.3 -22.9,16.9l1.9,3c6.5,-6 10.3,-9 11.4,-9.1l0.4,4.9c-1.1,0.1 -2.8,0.8 -5.1,2l4.1,6.2c7.9,-8.5 16.6,-15.8 26.1,-21.9c4.7,1.2 7.2,2.7 7.3,4.3l3.6,-0.3c25.8,-19.1 51.3,-32.9 76.6,-41.4l0.3,3.4c-4.7,7 -7.9,10.6 -9.6,10.8c0.2,2.4 1,4.5 2.5,6.3c0.4,4.3 -11.1,33.3 -34.4,86.9c-52.9,124.6 -97.3,216.8 -133.4,276.4c0.1,1.2 0.8,2.8 2.1,4.8c8.9,-2.1 14.5,-4.3 16.9,-6.4l1.9,-0.2l0.3,3.4l3.3,-0.3l3.4,-1.9c0.1,1 1.2,1.5 3.5,1.3l0.3,3.4c0.3,3.3 -1.6,8.3 -5.6,15.2c-3.6,4.1 -7.5,12.7 -11.6,25.8l0.1,1.6l3.3,-0.3c14.4,-16.1 25.3,-31.9 32.8,-47.3c42,-12.3 74,-24.4 96.2,-36.3c22.3,-1.9 39.3,-7.8 50.9,-17.5l-0.2,-1.8l-8.4,2.5l-1.9,0.2l-0.2,-1.8c16.4,-2.5 27.7,-6.1 34,-11.1c31.9,-24.6 56,-42 72.3,-52.3c33.5,-24.6 55.3,-48.6 65.2,-71.9c1.8,-0.4 3.6,-0.8 5.6,-1.3c4.7,-0.2 7.3,-0.3 8,-0.5c-0.2,-0.9 0.2,-1.4 1.1,-1.6c7.5,-0.8 3.9,0.5 8.7,-0.6l12.6,-2.9c-0.8,0.2 -1.1,0.6 -0.9,1.4l1.9,-1.2c-0.4,0 -0.7,-0.1 -1,-0.2l2.1,-0.5l-1,0.6c1.4,0.2 2.9,0.1 4.6,-0.3l0.9,3.7l-57.3,91.1l-12.7,15.9l-6.2,20.8l1.2,-0.3l6.2,-2.6l-2,8.1l0.6,2.4l1.7,2.1c-0.8,0.2 -1.1,0.7 -0.9,1.6l0.3,1.3l2.6,-0.6c3.8,-3.3 5.4,-6.3 4.8,-9c4.1,0.7 6.8,1 8.2,0.6l0.3,1.3c-2.5,0.6 -3.8,2.6 -4,6l0.3,1.3l1.4,-0.3c20.8,-22.7 71.8,-100.4 112.7,-153.1c-1.3,-5.7 20,-13.6 64,-23.8l1.4,-0.3c1.6,6.9 -1.8,23.6 -10.2,50.1c-5.4,16 -8,24.8 -7.6,26.2c-7,21.3 -10.3,32.8 -9.9,34.6l-15.6,51.1c-10.1,26.2 -17.8,53.7 -23.2,82.7c0.9,-0.2 2.3,-0.1 4.3,0.4l2.2,-1.9c0.2,0.9 0.8,1.2 1.7,1l-0.9,-3.7l6.8,-0.2c2,-0.5 3.7,-3 5.1,-7.6c-0.3,-6.9 1.1,-10.6 4.2,-11.4c4.2,-16.4 6.8,-24.6 7.7,-24.9c3.9,-16.3 6.8,-25.6 8.7,-27.9c5.9,-21.2 10.2,-32.1 13,-32.8l0.6,2.6l-4.3,11.1c-7.5,33.3 -15.1,59.6 -22.8,78.9l2.2,9.6l1.4,-0.3c18.6,-40 45.4,-119.2 80.3,-237.6c1,-10.4 6,-18.5 14.9,-24.2l-2,-2.1l-0.3,-1.1c4,-0.9 6.8,-2.5 8.4,-4.7c-0.2,-0.9 -3.7,-2.2 -10.5,-4l17.4,-74.6c3.8,-3.4 6,-5.2 6.7,-5.2l0.3,3.8c-0.9,0.1 -2.3,0.6 -3.9,1.7l3.3,4.7c6,-6.5 12.5,-12.1 19.6,-16.8c3.6,1 5.4,2.2 5.6,3.4l2.6,-0.2c19.8,-14.5 39.2,-24.9 58.3,-31.2l0.2,2.5c-3.5,5.3 -5.9,8 -7.2,8.1c0.2,1.8 0.7,3.4 1.6,4.8c0.3,3.3 -8.3,25.3 -25.9,66.1c-40.2,94.5 -73.9,164.4 -101.3,209.8c0.1,0.9 0.7,2.1 1.8,3.7c6.7,-1.6 11,-3.3 12.7,-4.9l1.2,-0.1l0.2,2.5l2.8,-0.2l2.5,-1.3c0.1,0.7 1,1 2.7,0.9l0.2,2.7c0.2,2.4 -1.2,6.2 -4.3,11.4c-2.9,3.1 -5.9,9.6 -9.1,19.5l0.1,1.3l2.6,-0.2c10.9,-12.2 19.2,-24.2 24.9,-36c31.9,-9.4 56.2,-18.5 73,-27.5c17.1,-1.5 30,-5.9 38.8,-13.3l-0.1,-1.3l-6.5,1.9l-1.4,0.1l-0.1,-1.3c12.4,-1.8 21.1,-4.6 25.8,-8.3c24.2,-18.6 42.5,-31.9 54.9,-39.7c38.6,-28.1 56.6,-55.1 54.4,-81Zm-6.6,1.7l0.9,10.1c-1.2,2.5 -2.5,3.8 -3.7,3.9l-1.5,-17.2c2.8,1 4.2,2 4.3,3.2Zm-757.2,-81.4l-1.7,0.1l-0.3,-3.1l6.9,-0.6l0.1,1.6c-1.1,0.1 -2.8,0.7 -5,2Zm-33.7,337.1c-4,-1.8 -7.6,-2.5 -10.7,-2.2l-0.4,-4.9c-0.2,-1.9 0.9,-3.2 3.3,-3.7c2.2,-0.2 3.5,1.4 3.7,4.6c5.8,-7.1 9,-10.7 9.6,-10.8l3.7,1.5c-1.2,10 -4.3,15.1 -9.2,15.5Zm360.1,-376.7c-1.7,0.2 -5.1,-5.1 -10,-15.6l-0.3,-3.1c3.2,-0.3 6.5,4.9 10,15.6l0.3,3.1Zm-4.8,-37.3l-1.4,3.3l-48.9,-20.4c32.6,1.1 49.4,6.8 50.3,17.1Zm-206.5,177.3l-6.9,0.6l-0.3,-3.1l6.9,-0.6l0.3,3.1Zm-5.6,-106.5l1.7,-0.1l0.4,4.9c-1.6,0.1 -3.7,2.5 -6.3,7.1l-0.3,-3.4c3.1,-3.7 4.7,-6.5 4.5,-8.5Zm-14.5,34.2l0.6,6.5l-1.7,0.1l-0.6,-6.5l1.7,-0.1Zm-7.6,12.2l3.3,-0.3c-0.3,5.4 -1.8,8.3 -4.5,8.5l-1.7,0.1c2.1,-3.6 3.1,-6.4 2.9,-8.3Zm-5.7,17l1.9,-0.2l0.1,1.6l-3.1,5.2l-3.3,0.3l-0.1,-1.6c3.3,-0.3 4.8,-2 4.5,-5.3Zm-5.6,15.3l-1,8.2l-1.7,0.1l-0.7,-8.1l3.4,-0.2Zm-56.1,159.5c-2.2,11.2 -4.6,16.9 -7.1,17.1l-0.1,-1.6c-0.6,-5.5 1.8,-10.7 7.2,-15.5Zm-10.3,22.3l0.1,1.6c0.2,2.2 -0.8,3.5 -3,3.6l-0.1,-1.6c-0.2,-1.9 0.8,-3.1 3,-3.6Zm-3,46.3l5.2,-0.5l0.2,1.8c-1.3,0.1 -3,0.8 -5.1,2l-3.3,0.3c-0.2,-1.7 0.9,-3 3,-3.6Zm148,-45.7c-29.2,14.4 -46.4,24.2 -51.5,29.3c-31.6,11 -47.3,17.8 -47,20.5c-28.1,11.1 -46.6,19.3 -55.5,24.4c-2.1,0.2 -5.1,-0.6 -9.1,-2.4c-0.5,-5.7 2.1,-10.3 7.6,-14c4.9,-0.4 9.6,0.3 14.1,2.2c5.2,-2.7 14.3,-5.7 27.2,-8.9l-0.3,-3.4l-10.4,0.9c1.3,-1.8 11.3,-6.5 30.1,-14.1l5.2,-0.5l0.1,1.6c-8.9,0.8 -13.8,3.4 -14.9,8.1c0.2,2.1 1.4,3 3.6,2.8c6.7,-4.2 10,-6.7 9.9,-7.4c12.7,-2.4 47.8,-20.8 105.3,-55.1l0.3,3.1c0.1,1.5 -4.8,5.7 -14.7,12.9Zm-88.2,29c8.4,-0.7 15.6,-4.1 21.6,-10c2.4,-0.2 3.7,0.7 3.8,2.8c-4.1,0.4 -12,3.8 -23.5,10.4l-1.7,0.1l-0.2,-3.3Zm142.3,-109.3l-44.1,34.9c-32.8,21.5 -50.4,32.3 -52.9,32.5c-52.2,28.7 -84.7,43.6 -97.3,44.7l-1.9,0.2c1.6,-5.9 24.8,-53.4 69.8,-142.8c19.8,-1.7 51,-10.9 93.5,-27.7l10.4,-0.9c21.5,-1.9 37.6,2.3 48.2,12.3l0.6,6.5c-8,23 -16.8,36.4 -26.3,40.3Zm-86.2,-48.5l7.1,-0.6l0.1,1.6l-7.1,0.6l-0.1,-1.6Zm99.7,-16.9l5.2,-0.5c4.8,2.3 7.3,4.3 7.5,6.1l0.1,1.6c-4.6,0.4 -8.9,-2 -12.8,-7.2Zm14.1,-80.3c-4.6,5.5 -17.2,14.9 -37.8,28.1c-6.8,0.6 -32.1,10.4 -75.9,29.6c-2.2,-1 -4.5,-1.4 -7,-1.2l-0.3,-3.1c-0.5,-6.3 2.3,-14.2 8.5,-23.8c3.4,-18 7.1,-28.3 11.2,-30.8l36.5,-82.1c-0.4,-5.1 7.4,-9 23.4,-11.7l5.2,-0.5l0.4,4.7c15.7,-2.4 25.5,-3.8 29.3,-4.1c29,-2.5 44.1,3.4 45.3,17.5l3.3,-0.3l-0.7,-8.3l3.6,-0.3c8.5,4.7 13.1,10.4 13.7,17.1c0.4,4.6 -2.1,10.3 -7.4,17.1c-2.2,0.2 -3.5,-1.4 -3.7,-4.6l-3.6,0.3l-0.8,10c-14.7,22 -25.4,33.3 -32,33.9c-6,8.3 -9.7,12.4 -11.2,12.5Zm22.4,57.5c-3,-2 -5.4,-2.9 -7.2,-2.8l-0.4,-4.9l3.3,-0.3l7.3,4.3c0.3,2.3 -0.7,3.5 -3,3.7Zm23.2,27.5c3.2,1.3 5.1,2.7 5.5,4l-1.6,0.4l0.1,0.1c-0.3,0 -0.7,0.1 -1,0.2l-2.4,1.9l-0.6,-6.6Zm2.2,13.8l-0.3,-1.3l4.2,-1l0.3,1.3l-4.2,1Zm10.1,11.3c4.3,-0.7 6.4,-1 14.4,-2.8l0.3,1.3l-15.2,3.5c0.2,-0.7 0.4,-1.4 0.5,-2Zm14.8,6.3c-6.4,0.6 -5,-0.2 -15.2,2.1l-0.3,-1.3l12.7,-4.1l6.1,-1.4l0.6,2.4c-2.7,0.6 -0.7,0.6 -3.9,2.3Zm13.5,-3.2c-1.5,0.4 -2.7,-0.3 -3.4,-2l3.9,-0.9c1.7,-0.4 2.8,0.3 3.2,2l-3.7,0.9Zm36.6,-39.4l-0.3,-1.3l6.3,-1.5l0.6,2.4l-6.6,0.4Zm39.1,239.8c0.4,-1.8 0.5,-3.1 0.3,-4l1.4,-0.3c1.7,-0.4 2.7,0.2 3.1,1.8l0.3,1.3l-5.1,1.2Zm27.4,-229.5l-2.8,-0.5c-4.5,1.8 -8.3,3.1 -11.4,3.8l-2.6,0.6c-1.5,0.4 -2.7,-0.2 -3.3,-1.8l18.3,-4.2l6,-2.8l2,2.3c-2.9,0.6 -5,1.5 -6.2,2.6Zm14.1,-4.5l-0.3,-1.3c0.9,-0.2 2.1,-0.9 3.4,-2.2l13,-3l0.3,1.3c-6.9,1.7 -12.4,3.4 -16.4,5.2Zm2,-26.3c-0.9,0.2 -2.1,1 -3.6,2.2c-0.2,-0.9 -2,-0.9 -5.4,-0.1c-0.6,-2.5 9,-6 28.9,-10.6l2.8,-0.6l0.6,2.4c-14,4.1 -21.8,6.4 -23.3,6.7Zm35,-37.8c-1.4,15.9 -7,24.9 -16.9,27.2l-0.3,-1.3l-8.8,3.4l-3.9,0.9c-2,0.5 -3.8,0.4 -5.4,-0.1l-0.8,-3.5c-0.3,-1.3 12.4,-18.9 38.2,-52.7l3,0.5c1.1,4.6 -0.6,13.1 -5.1,25.6Zm61.9,-53l-1.2,0.1l-0.2,-2.5l5.2,-0.5l0.1,1.3c-0.9,0.2 -2.2,0.7 -3.9,1.6Zm-25.5,256.1c-3,-1.4 -5.7,-2 -8,-1.8l-0.3,-3.8c-0.1,-1.3 0.7,-2.2 2.4,-2.7c1.7,-0.2 2.7,1 2.9,3.6c4.3,-5.5 6.7,-8.3 7.2,-8.3l2.7,1.1c-1,7.6 -3.3,11.6 -6.9,11.9Zm273.4,-286c-1.3,0.1 -3.8,-3.9 -7.7,-12l-0.2,-2.5c2.5,-0.2 5.1,3.7 7.7,11.7l0.2,2.8Zm-3.6,-28.6l-1.2,2.6l-37,-15.5c24.7,0.8 37.5,5.1 38.2,12.9Zm-156.9,134.7l-5.2,0.5l-0.2,-2.5l5.2,-0.4l0.2,2.4Zm-4.3,-80.9l1.4,-0.1l0.3,3.8c-1.3,0.1 -2.9,1.9 -4.8,5.4l-0.2,-2.5c2.3,-2.9 3.4,-5.1 3.3,-6.6Zm-10.9,26l0.4,4.9l-1.4,0.1l-0.4,-4.9l1.4,-0.1Zm-5.9,9.3l2.6,-0.2c-0.3,4.2 -1.4,6.4 -3.3,6.6l-1.4,0.1c1.5,-2.8 2.2,-5 2.1,-6.5Zm-4.2,12.8l1.2,-0.1l0.1,1.3l-2.3,4l-2.6,0.2l-0.1,-1.3c2.7,-0.2 3.9,-1.6 3.7,-4.1Zm-4.2,11.6l-0.9,6.4l-1.2,0.1l-0.5,-6.3l2.6,-0.2Zm-42.7,121.3c-1.7,8.4 -3.5,12.7 -5.4,12.9l-0.1,-1.1c-0.3,-4.2 1.5,-8.2 5.5,-11.8Zm-7.9,16.9l0.1,1.1c0.2,1.8 -0.6,2.8 -2.4,2.9l-0.1,-1.3c-0.1,-1.3 0.7,-2.2 2.4,-2.7Zm-2.2,35.2l4,-0.3l0.1,1.3c-0.9,0.1 -2.3,0.6 -3.9,1.5l-2.6,0.2c-0.1,-1.4 0.7,-2.3 2.4,-2.7Zm112.3,-34.7c-22,10.9 -35.1,18.3 -39.2,22.1c-24,8.4 -35.9,13.6 -35.7,15.7c-21.3,8.5 -35.3,14.6 -41.9,18.5c-1.6,0.1 -3.9,-0.5 -6.9,-1.9c-0.4,-4.3 1.6,-7.8 5.8,-10.4c3.8,-0.3 7.4,0.2 10.7,1.6c4,-2 10.9,-4.2 20.7,-6.7l-0.2,-2.5l-8.2,0.6c1,-1.4 8.7,-5 23,-10.8l4,-0.3l0.1,1.1c-6.8,0.6 -10.6,2.6 -11.4,6.2c0.1,1.6 1.1,2.4 2.8,2.2c5,-3.3 7.4,-5.2 7.4,-5.8c9.6,-1.7 36.2,-15.7 79.9,-41.9l0.2,2.5c0.1,1.1 -3.6,4.3 -11.1,9.8Zm-67,22c6.5,-0.6 12,-3.1 16.6,-7.5c1.7,-0.2 2.7,0.6 2.8,2.2c-3,0.3 -8.9,2.8 -17.8,7.6l-1.4,0.1l-0.2,-2.4Zm108.2,-83.1l-33.3,26.8c-24.9,16.3 -38.4,24.5 -40.5,24.7c-39.6,21.8 -64.2,33.1 -73.9,33.9l-1.4,0.1c1.2,-4.5 18.9,-40.6 53.1,-108.4c14.9,-1.3 38.5,-8.4 70.9,-21.2l8.1,-0.7c16.3,-1.4 28.5,1.8 36.5,9.5l0.4,4.9c-6.1,17.2 -12.7,27.3 -19.9,30.4Zm-65.4,-36.8l5.2,-0.5l0.1,1.3l-5.2,0.5l-0.1,-1.3Zm75.7,-12.9l4,-0.3c3.7,1.8 5.6,3.4 5.7,4.7l0.1,1.1c-3.5,0.3 -6.8,-1.5 -9.8,-5.5Zm10.5,-60.9c-3.5,4.2 -13,11.4 -28.5,21.4c-5.2,0.5 -24.4,7.9 -57.6,22.3c-1.6,-0.6 -3.4,-0.8 -5.3,-0.7l-0.2,-2.5c-0.4,-4.8 1.7,-10.8 6.3,-18.1c2.6,-13.8 5.5,-21.5 8.5,-23.3l27.9,-62.4c-0.3,-3.7 5.6,-6.7 17.6,-9l4,-0.3l0.3,3.8c11.8,-1.9 19.2,-3 22.2,-3.3c22,-1.9 33.5,2.5 34.4,13.3l2.6,-0.2l-0.5,-6l2.6,-0.2c6.4,3.5 9.8,7.7 10.2,12.7c0.3,3.6 -1.5,8 -5.3,13.1c-1.7,0.2 -2.7,-1 -2.9,-3.6l-2.6,0.2l-0.8,7.5c-11.1,16.9 -19.2,25.6 -24.3,26c-4.5,6.1 -7.3,9.2 -8.6,9.3Zm11.7,41.6l-0.3,-3.8l2.6,-0.2l5.6,3.4c0.1,1.6 -0.7,2.5 -2.4,2.7c-2.4,-1.5 -4.2,-2.2 -5.5,-2.1Zm-465.5,242.9l-2.6,0.6l-2.2,1.9c0.4,1.6 1.4,2.2 3.1,1.8c1.7,-0.4 2.4,-1.4 2,-3l-0.3,-1.3Zm-9.9,-19.7l0.3,1.3c1.7,-0.4 2.4,-1.4 2,-3l-0.3,-1.3c-1.6,0.4 -2.3,1.4 -2,3Zm70.4,-167.5l3,-0.7l-0.6,-2.6l-3,0.7l0.6,2.6Zm907.4,76.2c-30.4,6.8 -34.2,5.6 -40.6,6.1l0.2,2.5l2.8,-0.2l1.5,-0.1l-0.4,-0.3l3.3,-1.3c30.1,-3.3 33.6,-2.1 33.3,-5.5l-0.1,-1.2Zm-163.7,21.7l0.2,2.5l0.4,0l-0.2,-2.5l-0.4,0Zm-18.8,-65.9l-2.7,-0.9c-2.2,5.9 -3.3,9.4 -3.2,10.4l0.1,1.1c2.1,-0.1 4,-3.7 5.8,-10.6Zm188.7,43.7l0.2,2.5l4.4,0.8l-0.2,-2.5l-4.4,-0.8Zm-206.9,25.3l-6.8,-0.8l-1.2,2.6l0.1,1.3l40.5,-3.4l-0.2,-2.5l-32.4,2.8Zm-18.4,-88.7l-0.1,-1.3l-1.4,0.1l-2.5,1.6l1.4,2.4c1.9,-0.2 2.8,-1.1 2.6,-2.8Zm244.5,45l1.9,-0.2c1.1,-0.1 1.6,-1 1.5,-2.6l-1.1,-2.4c-6.9,0.6 -10.1,0.9 -15.7,4l-0.1,-1.3l-8.3,0.8c-0.2,-2.5 -0.9,-3.8 -2,-3.7l-4.3,0.4c-5,0.4 -7.4,0.2 -9.9,2.1c-0.1,-0.9 -0.4,-1.3 -0.9,-1.3l-4.8,0.4l-2.8,1.6c-0.1,-0.9 -0.4,-1.3 -0.9,-1.3l-1.7,1.5l-0.1,-1.3l-6.7,-0.5l-1.6,0.1l0.2,2.5l3.4,0.9l3.2,-0.2c1.1,0.7 2.3,0.9 3.7,0.8l2.8,-1.4l0.1,1.1c-15.7,3.9 -15.6,3.2 -26.4,5c-1.2,-0.8 -2.1,-1.2 -2.7,-1.1l-0.2,0.2c-1.2,-0.1 -1.9,-0.9 -2,-2.2l5.6,-0.7c0.4,0 0.7,0.4 3.8,1c4.5,-2.2 4.7,-3.1 7.1,-3.3l-0.2,-2.5c-15.4,3 -9.2,1 -28.5,2.7l-0.9,0.1l-0.2,-2.5c24.8,-3 16.5,-1.3 25,-3.7c0.1,0.9 0.4,1.3 0.9,1.3c1,-1 2.1,-1.5 3.4,-1.7l1.7,-0.1c8.7,-0.7 11.6,1 28.8,-3.8l0.1,1.1l2.8,-1.4l2.6,-0.2c-0.2,-2.5 3.6,-2.9 4.9,-3l-0.2,-2.7c-30.2,6.1 -38.1,4.4 -46.5,6.8l-0.1,-1.1c-7.9,1.4 -8.2,0.8 -10.2,0.9c-0.6,0.1 -1.5,0.6 -2.5,1.6c-0.1,-0.9 -0.4,-1.3 -1,-1.3c-0.3,0 -0.4,0.1 -0.5,0.1l-25.6,4.2c-0.1,-0.7 -0.4,-1.1 -1,-1c-13.3,2.8 -9.7,3.3 -27.5,4.9c-0.8,0.1 -1.9,0.5 -3.3,1.4c-0.1,-0.7 -0.5,-1.1 -1.4,-1l-10.9,0.9l-7.3,1.8c-0.1,-0.7 -0.5,-1.1 -1.4,-1c-4.1,1.1 -7.7,1.8 -10.6,2l-0.2,0c-1.8,0.2 0.9,-0.5 -0.5,-1.1l-2.2,1.3c-3.2,0.3 -1.5,-0.2 -12.5,-0.1c-19.3,2.4 -17.2,2.7 -19.3,2.8l-7.2,-0.5c0.1,0.7 -0.3,1.2 -1.1,1.2c-8.2,-1.1 -12.4,-2.4 -12.5,-3.9c1.1,-7.8 3,-11.8 5.7,-12l1.4,-0.1l-1.2,2.6l1.4,-0.1c2.6,-1.4 3.8,-2.7 3.7,-3.9l-0.2,-2.7l-2.6,0.2l-0.2,-2.5c-0.2,-1.9 0.1,-3.6 0.8,-5l5.9,-9.5l0.2,2.5l2.8,-0.2l-0.2,-2.5l-1.6,-2.3c2.1,-1.8 3.7,-2.8 5,-2.9l-0.1,-1.3l-3.8,0.3l-0.3,-3.8c7.6,-15.8 11.2,-25 11,-27.6l2.7,1.1c1.7,-0.1 2.5,-1.1 2.4,-2.9l-2.6,0.2l-0.1,-1.1c-0.2,-1.9 0.2,-3.7 1,-5.3c4.1,-4.3 6,-8.6 5.6,-13.1c0.8,-0.1 1.2,0.3 1.3,1.2c3.5,-2 6.2,-7.3 8.2,-16.1c6.2,-11.2 15,-33.6 26.5,-67.1c22,-59.2 21.1,-65.5 24.2,-79.5l-2.6,0.2c0.2,1.8 -0.2,3.5 -1,5.1c-1.8,-0.7 -3.2,-1.1 -4.2,-1l-0.1,-1.1c-0.4,-5.1 1.7,-11.2 6.5,-18.4l1.2,-0.1l2.2,8.6l2.6,-0.2c-0.1,-0.6 0.6,-4 2,-10.3c-0.1,-1.3 -1.1,-2.1 -3.1,-2.2l-2.5,1.6c-0.2,-1.8 -0.1,-6.5 0.2,-14l-1.3,0.1c-2.2,-2.2 -3.3,-4 -3.4,-5.5l-14.3,1.4c-0.1,-1 -0.6,-2.5 -1.6,-4.4c-0.1,-1.3 3.1,-2.6 9.7,-3.9l2.9,1.1l2.7,-1.6c0.1,0.9 0.6,1.3 1.6,1.2l2.7,-1.6c0.1,0.9 0.6,1.3 1.6,1.2l1.3,-0.1l-0.2,-2.9c-2,0.2 -7.3,0.2 -15.7,-0.1l-2.7,1.8l-0.1,-1.6c-67.1,5.5 -105.2,8.6 -114.3,9.5c-1.2,0.1 -5.9,0 -14.2,-0.2c0.1,1.1 -0.9,1.7 -2.9,1.9l-2.9,-1.3l-9.8,2.5c-2.3,0.2 -6.2,0.1 -11.6,-0.5c-1.5,1.2 -3.3,1.9 -5.5,2.1c-1.2,0.1 14.3,-0.8 28.7,-1.8c-1.5,1.2 -3.8,1.9 -7,2.2c-2.2,0.2 -4.1,-0.1 -5.7,-1c-2.2,1 -9.3,2.6 -21.2,5l-2.9,-1.1l-46.8,7.2c-1.8,-0.9 -3.9,-1.2 -6.3,-1c-2.5,0.2 -6.7,1.1 -12.5,2.7l-22.6,9.4l1.7,2.8c1.1,-0.1 2.7,-0.7 4.6,-1.8l8,0.7l-1,7.5c-7.4,3.3 -11.7,8.2 -12.9,14.4c-11.1,4.9 -16.6,8.4 -16.6,10.5l0.1,1.3l1.7,-0.1l3,-1.6l3.5,4.2l0.5,5.8c0.2,1.8 -18.5,41.1 -55.9,117.9c-32.4,74 -49.4,114.5 -51,121.8c-11.1,3.1 -17.5,7.6 -19.4,13.6c0.2,1.9 3.5,3.2 9.9,3.7l0.3,2.9l-2.9,4.8l0.5,5.8c0.3,3 8.4,5.3 24.3,6.9c-0.1,-1 0.4,-1.6 1.5,-1.7c0.3,3.6 -0.7,10.6 -3,21l1.7,-0.1c6.6,-9 9.7,-15.2 9.4,-18.6l1.4,-0.1c1.6,-0.1 3.3,1.7 5.3,5.6c-2,0.8 -9,16.7 -21,47.8l1.7,2.8l1.7,-0.1c14.7,-37.2 23.9,-57.8 27.7,-61.7c19.3,-1.7 52.7,-5.1 100.1,-10.2l3,-1.8c0.1,1 0.7,1.5 1.8,1.4l3.1,-0.3l3,-1.8c0.1,1 0.7,1.5 1.8,1.4l35.9,-3.1c9.5,-0.8 14,-3.7 13.6,-8.6c-0.1,-1.3 5.5,-2.8 16.8,-4.4c1.1,-0.1 2.7,0.2 4.9,0.9c-0.1,-0.9 5.6,-1.8 17,-2.8c0.3,-6 2.2,-9.2 5.6,-9.5l-0.3,-2.9c-3.2,0.3 -6.8,1.1 -11,2.5c-7.5,-0.4 -12.3,-1 -14.3,-1.7c-2,1.1 -3.5,1.7 -4.6,1.8l-25,0.8l-3,1.6c-0.1,-0.9 -0.7,-1.3 -1.8,-1.2l-1.4,0.1l-3.2,1.6c-0.1,-0.9 -2.7,-1.6 -7.9,-2.3l-3.2,1.9l-6.2,0.5l-0.1,-1.6c32.2,-3.5 48.1,-7.9 47.7,-13.1c2.1,-0.2 3.2,0.8 3.4,2.9l9.4,-2.4l-0.3,-2.9l-77.1,2.1c0.1,1 -0.4,1.6 -1.5,1.7l-9.4,-0.8c-2.4,0.2 -4.4,0.9 -6,2.1l-3.5,-1.3c-9.7,0.8 -16.9,2 -21.7,3.5c-6.6,-0.5 -13.9,-0.4 -22,0.3l-17.3,1.5l-8,-0.9c-0.4,-5.1 9.5,-30.2 29.9,-75.2c5.9,-15.2 11.3,-24.7 16.5,-28.3c1.1,-0.1 2.7,0.3 4.9,1.2l12.3,-4.2l6.3,1c10.6,-0.9 22.9,-3.9 37,-9.1c3.5,-0.3 6.1,-0.1 8,0.7l9.4,-2.2l28,-2.4c11.9,-1 24.8,-3.6 38.8,-7.9l-0.3,-2.9c-5.2,0.5 -7.9,-0.4 -8.1,-2.5c-0.3,-3.9 -4.1,-5.5 -11.4,-4.9l-0.3,-2.9l7.7,-2.2l20.2,-1.7l-0.3,-2.9c-0.8,0.1 -4.9,0 -12.5,-0.3l-0.3,-3.1l7.8,-0.7c2.1,-0.2 3,-1.2 2.8,-3.2c-10.5,0.3 -15.8,-0.2 -15.9,-1.6c-73.2,3.6 -109.9,4.3 -110.1,2c-1.1,0.1 -2.6,0.8 -4.6,2l-1.9,-3c19.4,-41.2 30.8,-62 34.1,-62.3c0.1,1.6 -0.7,4.2 -2.5,7.7l0.1,1.3l3.1,-0.3c7.7,-18.4 14.2,-27.9 19.6,-28.3c23,-2 -3.2,-3.5 46,-11.2c2,0.9 3.4,1.3 4.4,1.2c19.3,-3.9 46.2,-8 80.7,-12.2l-0.2,-2.9l-18.4,1.7l-0.2,-2.9c2.2,-0.2 4,-0.9 5.5,-2.1l0.1,1.6c1,-0.1 2.4,-0.8 4.2,-2c3.2,-0.3 5.6,0 7.3,0.9c6.4,-1.7 11.6,-2.7 15.4,-3.1l11.5,-1.1c2.8,-1.8 4.1,-3.4 4,-4.9l-0.1,-1.3c-2.9,0.3 -6.2,0.1 -10.1,-0.6c-0.1,-1.6 0.7,-2.7 2.6,-3.2l21.4,-2l9.8,-2.5c0.1,1.1 0.6,1.5 1.4,1.5c1,-0.1 2.4,-0.8 4.2,-2c0.5,0.1 1.1,0.1 1.6,0.2c-1.3,2.7 -2.8,6.6 -4.3,11.7l-2.8,0.2c-0.2,-1.9 -0.7,-3.6 -1.6,-5.1l-1.4,0.1c-26,72.4 -37.6,106.1 -61.6,161.7c-4.4,14.2 -8.1,22.1 -11.3,23.8c0.1,1.6 1.1,2.4 2.8,2.2c0.6,7 -1,13.9 -4.9,20.7c-11.1,32 -18.5,49.5 -22.3,52.7l2.5,15.1c0.1,1.6 -0.7,2.5 -2.4,2.7l-2.6,0.2c-0.4,-4.2 -1.9,-6.2 -4.6,-5.9l-1.4,0.1c-3.4,5.3 -6,11.4 -7.7,18.5l2.6,-0.2c3.5,-2.3 5.1,-5 4.8,-8.1l5.2,-0.5l3,1.1c-2.4,3.8 -3.5,6.8 -3.3,9.1l1.4,2.4l-3.4,8l0.1,1.3c3,-0.3 6.3,0.7 9.8,2.8c2.4,-0.2 5,-1.3 7.9,-3.2c3,-0.3 14.2,-0.4 33.5,-0.4l9.7,-3.3c11.8,-0.1 13.7,0.2 23.9,-0.7l4.2,-0.4l2.2,-1.5l0.1,1.3c10.7,-0.9 11.4,-0.2 19.8,0.8l0.1,1.3l-5.9,0.5l0.2,2.5c1.8,-0.2 3.4,-0.7 4.7,-1.8c1.5,-0.1 2.4,0.7 2.5,2.5c-2.4,0.2 -5.1,0.8 -8.1,1.8l-2.6,-0.9c-4.1,1.1 -3.2,1.4 -6,1.6l-4.1,-0.8c0.1,0.7 -0.3,1.2 -1,1.2c0.1,1.6 1,2.4 2.5,2.3l4.2,-0.4l21.9,-1.9l8.3,-1.8c0.1,0.7 0.4,1.1 1.1,1l4,-1.5l7.5,-0.6c5.8,-0.5 5.7,-0.9 18.3,-2.9c-0.1,-0.8 0.2,-1.1 0.8,-1.2l0.1,1.1c20.5,-3.5 21.8,-3.7 25.1,-4.8l0.3,0.6c5.1,-1.2 2.2,-0.9 3.6,-1.9c0.1,0.9 0.4,1.3 0.9,1.3l3.6,-0.3l-0.2,-2.7l-7.3,-0.1l-0.1,-0.2c-0.3,0.1 -0.5,0.1 -0.8,0.2l-1,0l0,0.2c-4.9,1 -5,0.3 -8.2,0.6l-18.3,1l-0.1,-1.3l10.2,-1.4l3.7,-0.3l2.1,-1.5l0.1,1.3c14.4,-1.2 19.5,2.4 86.1,-11.8c3.6,-0.3 3.3,-3.3 5.6,-9.5c-1.2,0.1 -2.4,-0.2 -3.5,-0.8c-5.5,2.1 -8.4,1.1 -19,2.8c-0.9,0.1 -1.6,-0.7 -1.9,-2.3l-0.1,-1.1l10.2,0.3c1.9,-0.2 5.6,-0.5 11.1,-3.6c0,0.9 -2,1.4 -0.8,1.3Zm-492.4,7.9l-4.7,0.4c-0.2,-1.9 2.3,-9.1 7.5,-21.4l3.1,-0.3c0.1,2.9 -1.8,10 -5.9,21.3Zm5.7,-22.8l-0.1,-1.3c-0.1,-1.6 0.9,-2.7 3.1,-3.2l0.1,1.3c0.1,1.9 -0.9,3 -3.1,3.2Zm62.5,48.3l0.1,1.3l-7.8,0.7l-0.1,-1.3l7.8,-0.7Zm-9.4,-0.8c0.1,1.6 -2.3,3.4 -7.5,5.2l-9.6,-0.7l-3.1,0.3l-0.3,-2.9l20.5,-1.9Zm63.2,-290.9l-4.7,0.4l-0.1,-1.6c-0.1,-1.6 0.8,-2.7 2.8,-3.2l1.7,-0.1l3.2,1.3c0.1,1.9 -0.8,3 -2.9,3.2Zm71.5,-14l1.5,-0.1l0.2,2.9l-4.3,0.4c-0.1,-1.6 0.7,-2.7 2.6,-3.2Zm-18,6.3l-7.1,-0.8l-0.1,-1.3c9.3,-0.8 12.4,-1.8 18.1,-3.4c0.1,1.1 1.1,1.5 2.9,1.3l0.2,2.9l-2.8,0.3c-2.2,0.2 -4.1,-0.1 -5.7,-1c-1.7,1.1 -3.5,1.8 -5.5,2Zm8.9,25.9l-0.1,-1.3l11.5,-1.1l0.1,1.3l-11.5,1.1Zm12.3,-10l-0.1,-1.6l5.6,-0.5l0.1,1.6l-5.6,0.5Zm1.3,-19.6l-1.5,0.1l1.3,-3.1l12.8,-1.2l0.1,1.6c-3.3,0.3 -7.6,1.2 -12.7,2.6Zm6.5,27.6l-0.2,-2.9l5.6,-0.5c1.9,-0.2 2.9,0.7 3,2.7l-8.4,0.7Zm33.9,-46.2l-7.2,2l-1.3,0.1c-3.4,0.3 -7.8,0.2 -13,-0.3c9.3,-0.6 18.2,-1.3 21.5,-1.8Zm-7.7,32l0.1,1.3l-9.9,0.9l-0.1,-1.3l9.9,-0.9Zm16.2,7.7c-0.1,-1.2 -2,-2 -5.9,-2.4l-9.9,2.8l-7.6,0.3c-1.7,-1.2 -2.6,-2 -2.7,-2.6l8.8,0.5l19.8,-3.2l10.1,0.4l0.1,1.6c-5,0.5 -9.2,1.4 -12.7,2.6Zm101.9,-26.3c1.2,0.1 2,0.1 2.3,0.1c3.5,-3.4 7.4,-6.1 11.9,-8c-3.6,15.8 -9.2,27.5 -16.9,35.1l-5.6,-3.4c4.7,-11.9 7.5,-19.8 8.3,-23.8Zm-17.2,29.5l1.4,-0.1c-1.9,3.6 -3.6,5.5 -5,5.6l-0.3,-3.8c0.9,0 2.2,-0.6 3.9,-1.7Zm-11.1,26.5c2.7,-10.8 5.3,-16.9 7.7,-18.5l0.1,1.3c-1.4,10 -3.6,15.3 -6.5,15.7l0.5,6.3c-2.4,3.4 -3.5,6 -3.4,8l-1.4,0.1l-0.8,-8.7c1.6,-0.2 2.9,-1.6 3.8,-4.2Zm-4.3,14.4c0.1,1.5 -0.9,5 -2.9,10.4l-1.4,0.1l-0.3,-3.8c1.9,-4.4 3.5,-6.6 4.6,-6.7Zm-80.7,234.2l-0.1,-1.1l2.6,-0.2l0.3,3.8c-1.4,0.1 -2.4,-0.7 -2.8,-2.5Zm115.3,3c-0.1,-0.9 -0.5,-1.3 -1.4,-1.2l-6.5,0.6l-0.1,-1.3l0.6,0l15.4,-1.3l0.1,1.3c-4.5,0.2 -7.2,0.9 -8.1,1.9Zm-7.7,-3.2c0.6,0.3 0.3,0.6 0,0.8c-0.3,-0.1 -0.7,-0.4 0,-0.8Zm0.8,-18l-8.6,0.7l-0.1,-1.3l7.8,-0.7l6.8,-1.7c0.1,0.8 0.5,1.1 1.4,1c8.1,-1.4 7.3,-1.8 11.2,-2.1c1.3,-0.1 2.1,0.7 2.2,2.3l-20.7,1.8Zm30.1,-2.6c-4.8,-0.5 -5.1,-0.9 -8.5,-0.6l-0.1,-1.1l7.7,-0.7l0.1,1.1c-0.8,0.1 2.1,0.3 0.8,1.3Zm0.6,-1.4l-0.1,-1.1l4.2,-0.4l0.1,1.1l-4.2,0.4Zm9.3,-0.8l-0.1,-1.1c0.7,-0.1 1.7,-0.6 3,-1.6c2.1,-0.2 3.2,1.2 3.4,2.8l-6.3,-0.1Zm11.9,-1.5l-0.1,-1.3l5.1,-0.4l0.1,1.3l-5.1,0.4Zm7.1,-0.6c-0.1,-1.5 0.5,-2.4 1.8,-2.6l1.7,2.2c-0.1,-0.7 0.2,-1.1 0.8,-1.2l1.3,2.4l-5.6,-0.8Zm-75.5,32.6l-0.2,-2.5l-0.8,0.1l0.2,2.5l0.8,-0.1Zm175.7,-45.5c0.8,-0.5 1.2,-1 -0.7,-1.3c-0.9,1 1,1.3 -1,1.4l0.1,0.9c0.2,-0.2 0.7,-0.5 1.1,-0.8l-1.1,0.9l0,0.1l-2.1,2.7l4.2,-1.5l0.5,0l-0.2,-2.5l-0.8,0.1Zm7.3,5.7l-0.8,0.1l0.2,2.5l5.9,-0.5c-0.1,-1.6 -4,-2.1 -5.3,-2.1Zm-9.1,-4.4l0.1,-0.1l0,-0.1c0,0 -0.1,0.1 -0.1,0.2Z" style="fill-rule:nonzero;"/><path d="M956.4,114.8l0.1,1.6l3.3,-0.3c-0.1,-1 0.3,-2.6 1,-4.6l-0.3,-2.9c-1.4,0.1 -2.8,2.2 -4.1,6.2Zm-31.6,-76l-0.3,-2.9l-4.7,0.4l0.3,2.9l4.7,-0.4Zm-91.7,171.7c-0.2,-2.7 -8.6,-13.2 -25.2,-31.7c-0.3,-3.4 5.4,-8.5 17.1,-15.2l33.4,-29.1c7.5,-9.5 11.9,-24.9 13.2,-46.3l-0.4,-4.9c-1.3,-14.8 -12,-26.7 -32.3,-35.8c-12,-8.1 -33.6,-12.6 -64.8,-13.4c-25.8,2.2 -59.5,11.4 -101,27.7c-11.4,8.2 -24.4,16.4 -39,24.6l0.2,2.5c0.9,-0.1 2.3,-0.6 3.9,-1.7c1.7,-0.2 2.7,0.6 2.8,2.2l2.5,-1.3l1.2,-0.1l0.1,1.1c0.1,1.3 -8.9,8.4 -27.1,21.1l1.4,2.6l-1.2,0.1l-3,-1.1c0.1,0.9 -1.2,1.5 -3.7,1.7l0.1,1.1l2.9,3.6c-0.9,0.1 -2.3,-0.3 -4.2,-1c-4.2,0.4 -8.3,2.6 -12.4,6.8l1.7,-7.4c6.1,-26.3 10.3,-49.6 12.5,-69.8l-0.3,-1.3c-4.2,-2.7 -8.3,-6.5 -12.1,-11.3c0.1,-3.1 0.1,-4.9 0,-5.3l-0.3,-1.1l-1.2,0.3c-13.2,19.8 -38.6,53.6 -76.3,101.4c-28.7,34 -43.5,52.9 -44.4,56.7c-11.7,12.1 -17.3,19.4 -16.7,21.9c-3.1,2 -4.4,4 -3.9,6.2c-0.9,0.2 -1.5,-0.1 -1.7,-1c-5,8.1 -12.4,13.3 -22.3,15.6l-10.4,2.4c-1.4,0.3 -2.1,1.3 -2,3l0.3,1.3l3.9,-0.9l0.3,1.1l-8.8,3.4l-15.6,3.6l-8.2,0.5c-1.2,1.2 6.5,-0.1 3.5,0.6l-10.2,2.4c-6.2,1.4 -9.6,0.9 -10.2,-1.6l-1.2,0.3c0.2,1.1 0.3,1.9 0.1,2.6l-0.6,-2.5l-8.2,1.9c-0.6,-3.8 -11.7,-17.6 -33.2,-41.4c-0.4,-4.6 7.2,-11.3 22.7,-20l43.8,-38.5c9.8,-12.6 15.6,-32.8 17.5,-60.6l-0.6,-6.5c-1.7,-19.6 -15.9,-35.4 -42.6,-47.6c-15.8,-10.7 -44.2,-16.4 -85.2,-17.3c-34,2.9 -78.4,15 -133,36.1c-15,10.9 -32.1,21.7 -51.3,32.4l0.3,3.4c1.3,-0.1 3,-0.8 5.1,-2c2.2,-0.2 3.4,0.8 3.6,2.8l3.4,-1.9l1.7,-0.1l0.1,1.6c0.1,1.6 -11.8,10.9 -35.9,27.9l1.9,3l-1.7,0.1l-3.7,-1.3c0.1,1 -1.6,1.7 -5.1,2l0.2,1.8l4,4.4c-1.3,0.1 -3.1,-0.3 -5.4,-1.1c-7.8,0.7 -15.4,6.3 -22.9,16.9l1.9,3c6.5,-6 10.3,-9 11.4,-9.1l0.4,4.9c-1.1,0.1 -2.8,0.8 -5.1,2l4.1,6.2c7.9,-8.5 16.6,-15.8 26.1,-21.9c4.7,1.2 7.2,2.7 7.3,4.3l3.6,-0.3c25.8,-19.1 51.3,-32.9 76.6,-41.4l0.3,3.4c-4.7,7 -7.9,10.6 -9.6,10.8c0.2,2.4 1,4.5 2.5,6.3c0.4,4.3 -11.1,33.3 -34.4,86.9c-52.9,124.6 -97.3,216.8 -133.4,276.4c0.1,1.2 0.8,2.8 2.1,4.8c8.9,-2.1 14.5,-4.3 16.9,-6.4l1.9,-0.2l0.3,3.4l3.3,-0.3l3.4,-1.9c0.1,1 1.2,1.5 3.5,1.3l0.3,3.4c0.3,3.3 -1.6,8.3 -5.6,15.2c-3.6,4.1 -7.5,12.7 -11.6,25.8l0.1,1.6l3.3,-0.3c14.4,-16.1 25.3,-31.9 32.8,-47.3c42,-12.3 74,-24.4 96.2,-36.3c22.3,-1.9 39.3,-7.8 50.9,-17.5l-0.2,-1.8l-8.4,2.5l-1.9,0.2l-0.2,-1.8c16.4,-2.5 27.7,-6.1 34,-11.1c31.9,-24.6 56,-42 72.3,-52.3c33.5,-24.6 55.3,-48.6 65.2,-71.9c1.8,-0.4 3.6,-0.8 5.6,-1.3c4.7,-0.2 7.3,-0.3 8,-0.5c-0.2,-0.9 0.2,-1.4 1.1,-1.6c7.5,-0.8 3.9,0.5 8.7,-0.6l12.6,-2.9l2.1,-0.5l-1,0.6c1.4,0.2 2.9,0.1 4.6,-0.3l0.9,3.7l-57.3,91.1l-12.7,15.9l-6.2,20.8l1.2,-0.3l6.2,-2.6l-2,8.1l0.6,2.4l1.7,2.1c-0.8,0.2 -1.1,0.7 -0.9,1.6l0.3,1.3l2.6,-0.6c3.8,-3.3 5.4,-6.3 4.8,-9c4.1,0.7 6.8,1 8.2,0.6l0.3,1.3c-2.5,0.6 -3.8,2.6 -4,6l0.3,1.3l1.4,-0.3c20.8,-22.7 71.8,-100.4 112.7,-153.1c-1.3,-5.7 20,-13.6 64,-23.8l1.4,-0.3c1.6,6.9 -1.8,23.6 -10.2,50.1c-5.4,16 -8,24.8 -7.6,26.2c-7,21.3 -10.3,32.8 -9.9,34.6l-15.6,51.1c-10.1,26.2 -17.8,53.7 -23.2,82.7c0.9,-0.2 2.3,-0.1 4.3,0.4l2.2,-1.9c0.2,0.9 0.8,1.2 1.7,1l-0.9,-3.7l6.8,-0.2c2,-0.5 3.7,-3 5.1,-7.6c-0.3,-6.9 1.1,-10.6 4.2,-11.4c4.2,-16.4 6.8,-24.6 7.7,-24.9c3.9,-16.3 6.8,-25.6 8.7,-27.9c5.9,-21.2 10.2,-32.1 13,-32.8l0.6,2.6l-4.3,11.1c-7.5,33.3 -15.1,59.6 -22.8,78.9l2.2,9.6l1.4,-0.3c18.6,-40 45.4,-119.2 80.3,-237.6c1,-10.4 6,-18.5 14.9,-24.2l-2,-2.1l-0.3,-1.1c4,-0.9 6.8,-2.5 8.4,-4.7c-0.2,-0.9 -3.7,-2.2 -10.5,-4l17.4,-74.6c3.8,-3.4 6,-5.2 6.7,-5.2l0.3,3.8c-0.9,0.1 -2.3,0.6 -3.9,1.7l3.3,4.7c6,-6.5 12.5,-12.1 19.6,-16.8c3.6,1 5.4,2.2 5.6,3.4l2.6,-0.2c19.8,-14.5 39.2,-24.9 58.3,-31.2l0.2,2.5c-3.5,5.3 -5.9,8 -7.2,8.1c0.2,1.8 0.7,3.4 1.6,4.8c0.3,3.3 -8.3,25.3 -25.9,66.1c-40.2,94.5 -73.9,164.4 -101.3,209.8c0.1,0.9 0.7,2.1 1.8,3.7c6.7,-1.6 11,-3.3 12.7,-4.9l1.2,-0.1l0.2,2.5l2.8,-0.2l2.5,-1.3c0.1,0.7 1,1 2.7,0.9l0.2,2.7c0.2,2.4 -1.2,6.2 -4.3,11.4c-2.9,3.1 -5.9,9.6 -9.1,19.5l0.1,1.3l2.6,-0.2c10.9,-12.2 19.2,-24.2 24.9,-36c31.9,-9.4 56.2,-18.5 73,-27.5c17.1,-1.5 30,-5.9 38.8,-13.3l-0.1,-1.3l-6.5,1.9l-1.4,0.1l-0.1,-1.3c12.4,-1.8 21.1,-4.6 25.8,-8.3c24.2,-18.6 42.5,-31.9 54.9,-39.7c38.6,-28.1 56.6,-55.1 54.4,-81Zm-6.6,1.7l0.9,10.1c-1.2,2.5 -2.5,3.8 -3.7,3.9l-1.5,-17.2c2.8,1 4.2,2 4.3,3.2Zm-757.2,-81.4l-1.7,0.1l-0.3,-3.1l6.9,-0.6l0.1,1.6c-1.1,0.1 -2.8,0.7 -5,2Zm-33.7,337.1c-4,-1.8 -7.6,-2.5 -10.7,-2.2l-0.4,-4.9c-0.2,-1.9 0.9,-3.2 3.3,-3.7c2.2,-0.2 3.5,1.4 3.7,4.6c5.8,-7.1 9,-10.7 9.6,-10.8l3.7,1.5c-1.2,10 -4.3,15.1 -9.2,15.5Zm360.1,-376.7c-1.7,0.2 -5.1,-5.1 -10,-15.6l-0.3,-3.1c3.2,-0.3 6.5,4.9 10,15.6l0.3,3.1Zm-4.8,-37.3l-1.4,3.3l-48.9,-20.4c32.6,1.1 49.4,6.8 50.3,17.1Zm-206.5,177.3l-6.9,0.6l-0.3,-3.1l6.9,-0.6l0.3,3.1Zm-5.6,-106.5l1.7,-0.1l0.4,4.9c-1.6,0.1 -3.7,2.5 -6.3,7.1l-0.3,-3.4c3.1,-3.7 4.7,-6.5 4.5,-8.5Zm-14.5,34.2l0.6,6.5l-1.7,0.1l-0.6,-6.5l1.7,-0.1Zm-7.6,12.2l3.3,-0.3c-0.3,5.4 -1.8,8.3 -4.5,8.5l-1.7,0.1c2.1,-3.6 3.1,-6.4 2.9,-8.3Zm-5.7,17l1.9,-0.2l0.1,1.6l-3.1,5.2l-3.3,0.3l-0.1,-1.6c3.3,-0.3 4.8,-2 4.5,-5.3Zm-5.6,15.3l-1,8.2l-1.7,0.1l-0.7,-8.1l3.4,-0.2Zm-56.1,159.5c-2.2,11.2 -4.6,16.9 -7.1,17.1l-0.1,-1.6c-0.6,-5.5 1.8,-10.7 7.2,-15.5Zm-10.3,22.3l0.1,1.6c0.2,2.2 -0.8,3.5 -3,3.6l-0.1,-1.6c-0.2,-1.9 0.8,-3.1 3,-3.6Zm-3,46.3l5.2,-0.5l0.2,1.8c-1.3,0.1 -3,0.8 -5.1,2l-3.3,0.3c-0.2,-1.7 0.9,-3 3,-3.6Zm148,-45.7c-29.2,14.4 -46.4,24.2 -51.5,29.3c-31.6,11 -47.3,17.8 -47,20.5c-28.1,11.1 -46.6,19.3 -55.5,24.4c-2.1,0.2 -5.1,-0.6 -9.1,-2.4c-0.5,-5.7 2.1,-10.3 7.6,-14c4.9,-0.4 9.6,0.3 14.1,2.2c5.2,-2.7 14.3,-5.7 27.2,-8.9l-0.3,-3.4l-10.4,0.9c1.3,-1.8 11.3,-6.5 30.1,-14.1l5.2,-0.5l0.1,1.6c-8.9,0.8 -13.8,3.4 -14.9,8.1c0.2,2.1 1.4,3 3.6,2.8c6.7,-4.2 10,-6.7 9.9,-7.4c12.7,-2.4 47.8,-20.8 105.3,-55.1l0.3,3.1c0.1,1.5 -4.8,5.7 -14.7,12.9Zm-88.2,29c8.4,-0.7 15.6,-4.1 21.6,-10c2.4,-0.2 3.7,0.7 3.8,2.8c-4.1,0.4 -12,3.8 -23.5,10.4l-1.7,0.1l-0.2,-3.3Zm142.3,-109.3l-44.1,35c-32.8,21.5 -50.4,32.3 -53,32.5c-52.2,28.7 -84.7,43.6 -97.3,44.7l-1.9,0.2c1.6,-5.9 24.8,-53.4 69.8,-142.8c19.8,-1.7 51,-10.9 93.5,-27.7l10.4,-0.9c21.5,-1.9 37.6,2.3 48.2,12.3l0.6,6.5c-7.9,22.9 -16.7,36.3 -26.2,40.2Zm-86.2,-48.5l7.1,-0.6l0.1,1.6l-7.1,0.6l-0.1,-1.6Zm99.7,-16.9l5.2,-0.5c4.8,2.3 7.3,4.3 7.5,6.1l0.1,1.6c-4.6,0.4 -8.9,-2 -12.8,-7.2Zm14.1,-80.3c-4.6,5.5 -17.2,14.9 -37.8,28.1c-6.8,0.6 -32.1,10.4 -75.9,29.6c-2.2,-1 -4.5,-1.4 -7,-1.2l-0.3,-3.1c-0.5,-6.3 2.3,-14.2 8.5,-23.8c3.4,-18 7.1,-28.3 11.2,-30.8l36.5,-82.1c-0.4,-5.1 7.4,-9 23.4,-11.7l5.2,-0.5l0.4,4.7c15.7,-2.4 25.5,-3.8 29.3,-4.1c29,-2.5 44.1,3.4 45.3,17.5l3.3,-0.3l-0.7,-8.3l3.6,-0.3c8.5,4.7 13.1,10.4 13.7,17.1c0.4,4.6 -2.1,10.3 -7.4,17.1c-2.2,0.2 -3.5,-1.4 -3.7,-4.6l-3.6,0.3l-0.8,10c-14.7,22 -25.4,33.3 -32,33.9c-6,8.3 -9.7,12.4 -11.2,12.5Zm22.4,57.5c-3,-2 -5.4,-2.9 -7.2,-2.8l-0.4,-4.9l3.3,-0.3l7.3,4.3c0.3,2.3 -0.7,3.5 -3,3.7Zm23.2,27.5c3.2,1.3 5.1,2.7 5.5,4l-1.6,0.4l0.1,0.1c-0.3,0 -0.7,0.1 -1,0.2l-2.4,1.9l-0.6,-6.6Zm2.2,13.8l-0.3,-1.3l4.2,-1l0.3,1.3l-4.2,1Zm10.1,11.3c4.3,-0.7 6.4,-1 14.4,-2.8l0.3,1.3l-15.2,3.5c0.2,-0.7 0.4,-1.4 0.5,-2Zm14.8,6.3c-6.4,0.6 -5,-0.2 -15.2,2.1l-0.3,-1.3l12.8,-4.1l6.1,-1.4l0.6,2.4c-2.8,0.6 -0.8,0.6 -4,2.3Zm13.5,-3.2c-1.5,0.4 -2.7,-0.3 -3.4,-2l3.9,-0.9c1.7,-0.4 2.8,0.3 3.2,2l-3.7,0.9Zm36.6,-39.4l-0.3,-1.3l6.3,-1.5l0.6,2.4l-6.6,0.4Zm39.1,239.8c0.4,-1.8 0.5,-3.1 0.3,-4l1.4,-0.3c1.7,-0.4 2.7,0.2 3.1,1.8l0.3,1.3l-5.1,1.2Zm27.4,-229.5l-2.8,-0.5c-4.5,1.8 -8.3,3.1 -11.4,3.8l-2.6,0.6c-1.5,0.4 -2.7,-0.2 -3.3,-1.8l18.3,-4.2l6,-2.8l2,2.3c-2.9,0.6 -5,1.5 -6.2,2.6Zm14.1,-4.5l-0.3,-1.3c0.9,-0.2 2.1,-0.9 3.4,-2.2l13,-3l0.3,1.3c-6.9,1.7 -12.4,3.4 -16.4,5.2Zm2,-26.3c-0.9,0.2 -2.1,1 -3.6,2.2c-0.2,-0.9 -2,-0.9 -5.4,-0.1c-0.6,-2.5 9,-6 28.9,-10.6l2.8,-0.6l0.6,2.4c-14,4.1 -21.8,6.4 -23.3,6.7Zm35,-37.8c-1.4,15.9 -7,24.9 -16.9,27.2l-0.3,-1.3l-8.8,3.4l-3.9,0.9c-2,0.5 -3.8,0.4 -5.4,-0.1l-0.8,-3.5c-0.3,-1.3 12.4,-18.9 38.2,-52.7l3,0.5c1.1,4.6 -0.6,13.1 -5.1,25.6Zm61.9,-53l-1.2,0.1l-0.2,-2.5l5.2,-0.5l0.1,1.3c-0.9,0.2 -2.2,0.7 -3.9,1.6Zm-25.5,256.1c-3,-1.4 -5.7,-2 -8,-1.8l-0.3,-3.8c-0.1,-1.3 0.7,-2.2 2.4,-2.7c1.7,-0.2 2.7,1 2.9,3.6c4.3,-5.5 6.7,-8.3 7.2,-8.3l2.7,1.1c-1,7.6 -3.3,11.6 -6.9,11.9Zm273.4,-286c-1.3,0.1 -3.8,-3.9 -7.7,-12l-0.2,-2.5c2.5,-0.2 5.1,3.7 7.7,11.7l0.2,2.8Zm-3.6,-28.6l-1.2,2.6l-37,-15.5c24.7,0.8 37.5,5.1 38.2,12.9Zm-156.9,134.7l-5.2,0.5l-0.2,-2.5l5.2,-0.5l0.2,2.5Zm-4.3,-80.9l1.4,-0.1l0.3,3.8c-1.3,0.1 -2.9,1.9 -4.8,5.4l-0.2,-2.5c2.3,-2.9 3.4,-5.1 3.3,-6.6Zm-10.9,26l0.4,4.9l-1.4,0.1l-0.4,-4.9l1.4,-0.1Zm-5.9,9.3l2.6,-0.2c-0.3,4.2 -1.4,6.4 -3.3,6.6l-1.4,0.1c1.5,-2.8 2.2,-5 2.1,-6.5Zm-4.2,12.8l1.2,-0.1l0.1,1.3l-2.3,4l-2.6,0.2l-0.1,-1.3c2.7,-0.2 3.9,-1.6 3.7,-4.1Zm-4.2,11.6l-0.9,6.4l-1.2,0.1l-0.5,-6.3l2.6,-0.2Zm-42.7,121.3c-1.7,8.4 -3.5,12.7 -5.4,12.9l-0.1,-1.1c-0.3,-4.2 1.5,-8.2 5.5,-11.8Zm-7.9,16.9l0.1,1.1c0.2,1.8 -0.6,2.8 -2.4,2.9l-0.1,-1.3c-0.1,-1.3 0.7,-2.2 2.4,-2.7Zm-2.2,35.2l4,-0.3l0.1,1.3c-0.9,0.1 -2.3,0.6 -3.9,1.5l-2.6,0.2c-0.1,-1.4 0.7,-2.3 2.4,-2.7Zm112.3,-34.7c-22,10.9 -35.1,18.3 -39.2,22.1c-24,8.4 -35.9,13.6 -35.7,15.7c-21.3,8.5 -35.3,14.6 -41.9,18.5c-1.6,0.1 -3.9,-0.5 -6.9,-1.9c-0.4,-4.3 1.6,-7.8 5.8,-10.4c3.8,-0.3 7.4,0.2 10.7,1.6c4,-2 10.9,-4.2 20.7,-6.7l-0.2,-2.5l-8.1,0.7c1,-1.4 8.7,-5 23,-10.8l4,-0.3l0.1,1.1c-6.8,0.6 -10.6,2.6 -11.4,6.2c0.1,1.6 1.1,2.4 2.8,2.2c5,-3.3 7.4,-5.2 7.4,-5.8c9.6,-1.7 36.2,-15.7 79.9,-41.9l0.2,2.5c0,1 -3.7,4.2 -11.2,9.7Zm-67,22c6.5,-0.6 12,-3.1 16.6,-7.5c1.7,-0.1 2.7,0.6 2.8,2.2c-3,0.3 -8.9,2.8 -17.8,7.6l-1.4,0.1l-0.2,-2.4Zm108.2,-83.1l-33.3,26.8c-24.9,16.3 -38.4,24.5 -40.5,24.7c-39.6,21.8 -64.2,33.1 -73.9,33.9l-1.4,0.1c1.2,-4.5 18.9,-40.6 53.1,-108.4c14.9,-1.3 38.5,-8.4 70.9,-21.2l8.1,-0.7c16.3,-1.4 28.5,1.8 36.5,9.5l0.4,4.9c-6.1,17.2 -12.7,27.3 -19.9,30.4Zm-65.4,-36.8l5.2,-0.5l0.1,1.3l-5.2,0.5l-0.1,-1.3Zm75.7,-12.9l4,-0.3c3.7,1.8 5.6,3.4 5.7,4.7l0.1,1.1c-3.5,0.3 -6.8,-1.5 -9.8,-5.5Zm10.5,-60.9c-3.5,4.2 -13,11.4 -28.5,21.4c-5.2,0.5 -24.4,7.9 -57.6,22.3c-1.6,-0.6 -3.4,-0.8 -5.3,-0.7l-0.2,-2.5c-0.4,-4.8 1.7,-10.8 6.3,-18.1c2.6,-13.8 5.5,-21.5 8.5,-23.3l27.9,-62.4c-0.3,-3.7 5.6,-6.7 17.6,-9l4,-0.3l0.3,3.8c11.8,-1.9 19.2,-3 22.2,-3.3c22,-1.9 33.5,2.5 34.4,13.3l2.6,-0.2l-0.5,-6l2.6,-0.2c6.4,3.5 9.8,7.7 10.2,12.7c0.3,3.6 -1.5,8 -5.3,13.1c-1.7,0.2 -2.7,-1 -2.9,-3.6l-2.6,0.2l-0.8,7.5c-11.1,16.9 -19.2,25.6 -24.3,26c-4.5,6.1 -7.3,9.2 -8.6,9.3Zm11.7,41.6l-0.3,-3.8l2.6,-0.2l5.6,3.4c0.1,1.6 -0.7,2.5 -2.4,2.7c-2.4,-1.5 -4.2,-2.2 -5.5,-2.1Zm-465.5,242.9l-2.6,0.6l-2.2,1.9c0.4,1.6 1.4,2.2 3.1,1.8c1.7,-0.4 2.4,-1.4 2,-3l-0.3,-1.3Zm-9.9,-19.7l0.3,1.3c1.7,-0.4 2.4,-1.4 2,-3l-0.3,-1.3c-1.6,0.4 -2.3,1.4 -2,3Zm70.8,-133l1.9,-1.2c-0.4,0 -0.7,-0.1 -1,-0.2c-0.7,0.2 -1,0.7 -0.9,1.4Zm-0.4,-34.5l3,-0.7l-0.6,-2.6l-3,0.7l0.6,2.6Zm706.7,101l-6.8,-0.8l-1.2,2.6l0.1,1.3l40.5,-3.4l-0.2,-2.5l-32.4,2.8Zm37,-3.1l0.2,2.5l0.4,0l-0.2,-2.5l-0.4,0Zm169.9,-22.2l0.2,2.5l4.4,0.8l-0.2,-2.5l-4.4,-0.8Zm-6.2,0.5c-30.4,6.8 -34.2,5.6 -40.6,6.1l0.2,2.5l2.8,-0.2l1.5,-0.1l-0.4,-0.3l3.3,-1.3c30.1,-3.3 33.6,-2.1 33.3,-5.5l-0.1,-1.2Zm-182.5,-44.2l-2.7,-0.9c-2.2,5.9 -3.3,9.4 -3.2,10.4l0.1,1.1c2.1,-0.1 4,-3.7 5.8,-10.6Zm-36.6,-19.7l-0.1,-1.3l-1.4,0.1l-2.5,1.6l1.4,2.4c1.9,-0.2 2.8,-1.1 2.6,-2.8Zm79.5,82.2l-0.2,-2.5l-0.8,0.1l0.2,2.5l0.8,-0.1Zm165,-37.2l1.9,-0.2c1.1,-0.1 1.6,-1 1.5,-2.6l-1.1,-2.4c-6.9,0.6 -10.1,0.9 -15.7,4l-0.1,-1.3l-8.3,0.8c-0.2,-2.5 -0.9,-3.8 -2,-3.7l-4.3,0.4c-5,0.4 -7.4,0.2 -9.9,2.1c-0.1,-0.9 -0.4,-1.3 -0.9,-1.3l-4.8,0.4l-2.8,1.6c-0.1,-0.9 -0.4,-1.3 -0.9,-1.3l-1.7,1.5l-0.1,-1.3l-6.7,-0.5l-1.6,0.1l0.2,2.5l3.4,0.9l3.2,-0.2c1.1,0.7 2.3,0.9 3.7,0.8l2.8,-1.4l0.1,1.1c-15.7,3.9 -15.6,3.2 -26.4,5c-1.2,-0.8 -2.1,-1.2 -2.7,-1.1l-0.2,0.2c-1.2,-0.1 -1.9,-0.9 -2,-2.2l5.6,-0.7c0.4,0 0.7,0.4 3.8,1c4.5,-2.2 4.7,-3.1 7.1,-3.3l-0.2,-2.5c-15.4,3 -9.2,1 -28.5,2.7l-0.9,0.1l-0.2,-2.5c24.8,-3 16.5,-1.3 25,-3.7c0.1,0.9 0.4,1.3 0.9,1.3c1,-1 2.1,-1.5 3.4,-1.7l1.7,-0.1c8.7,-0.7 11.6,1 28.8,-3.8l0.1,1.1l2.8,-1.4l2.6,-0.2c-0.2,-2.5 3.6,-2.9 4.9,-3l-0.2,-2.7c-30.2,6.1 -38.1,4.4 -46.5,6.8l-0.1,-1.1c-7.9,1.4 -8.2,0.8 -10.2,0.9c-0.6,0.1 -1.5,0.6 -2.5,1.6c-0.1,-0.9 -0.4,-1.3 -1,-1.3c-0.3,0 -0.4,0.1 -0.5,0.1l-25.6,4.2c-0.1,-0.7 -0.4,-1.1 -1,-1c-13.3,2.8 -9.7,3.3 -27.5,4.9c-0.8,0.1 -1.9,0.5 -3.3,1.4c-0.1,-0.7 -0.5,-1.1 -1.4,-1l-10.9,0.9l-7.3,1.8c-0.1,-0.7 -0.5,-1.1 -1.4,-1c-4.1,1.1 -7.7,1.8 -10.6,2l-0.2,0c-1.8,0.2 0.9,-0.5 -0.5,-1.1l-2.2,1.3c-3.2,0.3 -1.5,-0.2 -12.5,-0.1c-19.3,2.4 -17.2,2.7 -19.3,2.8l-7.2,-0.5c0.1,0.7 -0.3,1.2 -1.1,1.2c-8.2,-1.1 -12.4,-2.4 -12.5,-3.9c1.1,-7.8 3,-11.8 5.7,-12l1.4,-0.1l-1.2,2.6l1.4,-0.1c2.6,-1.4 3.8,-2.7 3.7,-3.9l-0.2,-2.7l-2.6,0.2l-0.2,-2.5c-0.2,-1.9 0.1,-3.6 0.8,-5l5.9,-9.5l0.2,2.5l2.8,-0.2l-0.2,-2.5l-1.6,-2.3c2.1,-1.8 3.7,-2.8 5,-2.9l-0.1,-1.3l-3.8,0.3l-0.3,-3.8c7.6,-15.8 11.2,-25 11,-27.6l2.7,1.1c1.7,-0.1 2.5,-1.1 2.4,-2.9l-2.6,0.2l-0.1,-1.1c-0.2,-1.9 0.2,-3.7 1,-5.3c4.1,-4.3 6,-8.6 5.6,-13.1c0.8,-0.1 1.2,0.3 1.3,1.2c3.5,-2 6.2,-7.3 8.2,-16.1c6.2,-11.2 15,-33.6 26.5,-67.1c22,-59.2 21.1,-65.5 24.2,-79.5l-2.6,0.2c0.2,1.8 -0.2,3.5 -1,5.1c-1.8,-0.7 -3.2,-1.1 -4.2,-1l-0.1,-1.1c-0.4,-5.1 1.7,-11.2 6.5,-18.4l1.2,-0.1l2.2,8.6l2.6,-0.2c-0.1,-0.6 0.6,-4 2,-10.3c-0.1,-1.3 -1.1,-2.1 -3.1,-2.2l-2.5,1.6c-0.2,-1.8 -0.1,-6.5 0.2,-14l-1.3,0.1c-2.2,-2.2 -3.3,-4 -3.4,-5.5l-14.3,1.4c-0.1,-1 -0.6,-2.5 -1.6,-4.4c-0.1,-1.3 3.1,-2.6 9.7,-3.9l2.9,1.1l2.7,-1.6c0.1,0.9 0.6,1.3 1.6,1.2l2.7,-1.6c0.1,0.9 0.6,1.3 1.6,1.2l1.3,-0.1l-0.2,-2.9c-2,0.2 -7.3,0.2 -15.7,-0.1l-2.7,1.8l-0.1,-1.6c-67.1,5.5 -105.2,8.6 -114.3,9.5c-1.2,0.1 -5.9,0 -14.2,-0.2c0.1,1.1 -0.9,1.7 -2.9,1.9l-2.9,-1.3l-9.8,2.5c-2.3,0.2 -6.2,0.1 -11.6,-0.5c-1.5,1.2 -3.3,1.9 -5.5,2.1c-1.2,0.1 14.3,-0.8 28.7,-1.8c-1.5,1.2 -3.8,1.9 -7,2.2c-2.2,0.2 -4.1,-0.1 -5.7,-1c-2.2,1 -9.3,2.6 -21.2,5l-2.9,-1.1l-46.8,7.2c-1.8,-0.9 -3.9,-1.2 -6.3,-1c-2.5,0.2 -6.7,1.1 -12.5,2.7l-22.6,9.4l1.7,2.8c1.1,-0.1 2.7,-0.7 4.6,-1.8l8,0.7l-1,7.5c-7.4,3.3 -11.7,8.2 -12.9,14.4c-11.1,4.9 -16.6,8.4 -16.6,10.5l0.1,1.3l1.7,-0.1l3,-1.6l3.5,4.2l0.5,5.8c0.2,1.8 -18.5,41.1 -55.9,117.9c-32.4,74 -49.4,114.5 -51,121.8c-11.1,3.1 -17.5,7.6 -19.4,13.6c0.2,1.9 3.5,3.2 9.9,3.7l0.3,2.9l-2.9,4.8l0.5,5.8c0.3,3 8.4,5.3 24.3,6.9c-0.1,-1 0.4,-1.6 1.5,-1.7c0.3,3.6 -0.7,10.6 -3,21l1.7,-0.1c6.6,-9 9.7,-15.2 9.4,-18.6l1.4,-0.1c1.6,-0.1 3.3,1.7 5.3,5.6c-2,0.8 -9,16.7 -21,47.8l1.7,2.8l1.7,-0.1c14.7,-37.2 23.9,-57.8 27.7,-61.7c19.3,-1.7 52.7,-5.1 100.1,-10.2l3,-1.8c0.1,1 0.7,1.5 1.8,1.4l3.1,-0.3l3,-1.8c0.1,1 0.7,1.5 1.8,1.4l35.9,-3.1c9.5,-0.8 14,-3.7 13.6,-8.6c-0.1,-1.3 5.5,-2.8 16.8,-4.4c1.1,-0.1 2.7,0.2 4.9,0.9c-0.1,-0.9 5.6,-1.8 17,-2.8c0.3,-6 2.2,-9.2 5.6,-9.5l-0.3,-2.9c-3.2,0.3 -6.8,1.1 -11,2.5c-7.5,-0.4 -12.3,-1 -14.3,-1.7c-2,1.1 -3.5,1.7 -4.6,1.8l-25,0.8l-3,1.6c-0.1,-0.9 -0.7,-1.3 -1.8,-1.2l-1.4,0.1l-3.2,1.6c-0.1,-0.9 -2.7,-1.6 -7.9,-2.3l-3.2,1.9l-6.2,0.5l-0.1,-1.6c32.2,-3.5 48.1,-7.9 47.7,-13.1c2.1,-0.2 3.2,0.8 3.4,2.9l9.4,-2.4l-0.3,-2.9l-77.1,2.1c0.1,1 -0.4,1.6 -1.5,1.7l-9.4,-0.8c-2.4,0.2 -4.4,0.9 -6,2.1l-3.5,-1.3c-9.7,0.8 -16.9,2 -21.7,3.5c-6.6,-0.5 -13.9,-0.4 -22,0.3l-17.3,1.5l-8,-0.9c-0.4,-5.1 9.5,-30.2 29.9,-75.2c5.9,-15.2 11.3,-24.7 16.5,-28.3c1.1,-0.1 2.7,0.3 4.9,1.2l12.3,-4.2l6.3,1c10.6,-0.9 22.9,-3.9 37,-9.1c3.5,-0.3 6.1,-0.1 8,0.7l9.4,-2.2l28,-2.4c11.9,-1 24.8,-3.6 38.8,-7.9l-0.3,-2.9c-5.2,0.5 -7.9,-0.4 -8.1,-2.5c-0.3,-3.9 -4.1,-5.5 -11.4,-4.9l-0.3,-2.9l7.7,-2.2l20.2,-1.7l-0.3,-2.9c-0.8,0.1 -4.9,0 -12.5,-0.3l-0.3,-3.1l7.8,-0.7c2.1,-0.2 3,-1.2 2.8,-3.2c-10.5,0.3 -15.8,-0.2 -15.9,-1.6c-73.2,3.6 -109.9,4.3 -110.1,2c-1.1,0.1 -2.6,0.8 -4.6,2l-1.9,-3c19.4,-41.2 30.8,-62 34.1,-62.3c0.1,1.6 -0.7,4.2 -2.4,7.7l0.1,1.3l3.1,-0.3c7.7,-18.4 14.2,-27.9 19.6,-28.3c23,-2 -3.2,-3.5 46,-11.2c2,0.9 3.4,1.3 4.4,1.2c19.3,-3.9 46.2,-8 80.7,-12.2l-0.2,-2.9l-18.4,1.7l-0.2,-2.9c2.2,-0.2 4,-0.9 5.5,-2.1l0.1,1.6c1,-0.1 2.4,-0.8 4.2,-2c3.2,-0.3 5.6,0 7.3,0.9c6.4,-1.7 11.6,-2.7 15.4,-3.1l11.5,-1.1c2.8,-1.8 4.1,-3.4 4,-4.9l-0.1,-1.3c-2.9,0.3 -6.2,0.1 -10.1,-0.6c-0.1,-1.6 0.7,-2.7 2.6,-3.2l21.4,-2l9.8,-2.5c0.1,1.1 0.6,1.5 1.4,1.5c1,-0.1 2.4,-0.8 4.2,-2c0.5,0.1 1.1,0.1 1.6,0.2c-1.3,2.7 -2.8,6.6 -4.3,11.7l-2.8,0.2c-0.2,-1.9 -0.7,-3.6 -1.6,-5.1l-1.4,0.1c-26,72.4 -37.6,106.1 -61.6,161.7c-4.4,14.2 -8.1,22.1 -11.3,23.8c0.1,1.6 1.1,2.4 2.8,2.2c0.6,7 -1,13.9 -4.9,20.7c-11.1,32 -18.5,49.5 -22.3,52.7l2.5,15.1c0.1,1.6 -0.7,2.5 -2.4,2.7l-2.6,0.2c-0.4,-4.2 -1.9,-6.2 -4.6,-5.9l-1.4,0.1c-3.4,5.3 -6,11.4 -7.7,18.5l2.6,-0.2c3.5,-2.3 5.1,-5 4.8,-8.1l5.2,-0.5l3,1.1c-2.4,3.8 -3.5,6.8 -3.3,9.1l1.4,2.4l-3.4,8l0.1,1.3c3,-0.3 6.3,0.7 9.8,2.8c2.4,-0.2 5,-1.3 7.9,-3.2c3,-0.3 14.2,-0.4 33.5,-0.4l9.7,-3.3c11.8,-0.1 13.7,0.2 23.9,-0.7l4.2,-0.4l2.2,-1.5l0.1,1.3c10.7,-0.9 11.4,-0.2 19.8,0.8l0.1,1.3l-5.9,0.5l0.2,2.5c1.8,-0.2 3.4,-0.7 4.7,-1.8c1.5,-0.1 2.4,0.7 2.5,2.5c-2.4,0.2 -5.1,0.8 -8.1,1.8l-2.6,-0.9c-4.1,1.1 -3.2,1.4 -6,1.6l-4.1,-0.8c0.1,0.7 -0.3,1.2 -1,1.2c0.1,1.6 1,2.4 2.5,2.3l4.2,-0.4l21.9,-1.9l8.3,-1.8c0.1,0.7 0.4,1.1 1.1,1l4,-1.5l7.5,-0.6c5.8,-0.5 5.7,-0.9 18.3,-2.9c-0.1,-0.8 0.2,-1.1 0.8,-1.2l0.1,1.1c20.5,-3.5 21.8,-3.7 25.1,-4.8l0.3,0.6c5.1,-1.2 2.2,-0.9 3.6,-1.9c0.1,0.9 0.4,1.3 0.9,1.3l3.6,-0.3l-0.2,-2.7l-7.3,-0.1l-0.1,-0.2c-0.3,0.1 -0.5,0.1 -0.8,0.2l-1,0l0,0.2c-4.9,1 -5,0.3 -8.2,0.6l-18.3,1l-0.1,-1.3l10.2,-1.4l3.7,-0.3l2.1,-1.5l0.1,1.3c14.4,-1.2 19.5,2.4 86.1,-11.8c3.6,-0.3 3.3,-3.3 5.6,-9.5c-1.2,0.1 -2.4,-0.2 -3.5,-0.8c-5.5,2.1 -8.4,1.1 -19,2.8c-0.9,0.1 -1.6,-0.7 -1.9,-2.3l-0.1,-1.1l10.2,0.3c1.9,-0.2 5.6,-0.5 11.1,-3.6c0,0.9 -2.1,1.4 -0.9,1.3Zm-492.4,7.9l-4.7,0.4c-0.2,-1.9 2.3,-9.1 7.5,-21.4l3.1,-0.3c0.1,2.9 -1.8,10 -5.9,21.3Zm5.7,-22.8l-0.1,-1.3c-0.1,-1.6 0.9,-2.7 3.1,-3.2l0.1,1.3c0.1,1.9 -0.9,3 -3.1,3.2Zm62.5,48.3l0.1,1.3l-7.8,0.7l-0.1,-1.3l7.8,-0.7Zm-9.4,-0.8c0.1,1.6 -2.3,3.4 -7.5,5.2l-9.6,-0.7l-3.1,0.3l-0.3,-2.9l20.5,-1.9Zm63.2,-290.9l-4.7,0.4l-0.1,-1.6c-0.1,-1.6 0.8,-2.7 2.8,-3.2l1.7,-0.1l3.2,1.3c0.1,1.9 -0.8,3 -2.9,3.2Zm71.5,-14l1.5,-0.1l0.2,2.9l-4.3,0.4c-0.1,-1.6 0.7,-2.7 2.6,-3.2Zm-18,6.3l-7.1,-0.8l-0.1,-1.3c9.3,-0.8 12.4,-1.8 18.1,-3.4c0.1,1.1 1.1,1.5 2.9,1.3l0.2,2.9l-2.8,0.3c-2.2,0.2 -4.1,-0.1 -5.7,-1c-1.7,1.1 -3.5,1.8 -5.5,2Zm8.9,25.9l-0.1,-1.3l11.5,-1.1l0.1,1.3l-11.5,1.1Zm12.3,-10l-0.1,-1.6l5.6,-0.5l0.1,1.6l-5.6,0.5Zm1.3,-19.6l-1.5,0.1l1.3,-3.1l12.8,-1.2l0.1,1.6c-3.3,0.3 -7.6,1.2 -12.7,2.6Zm6.5,27.6l-0.2,-2.9l5.6,-0.5c1.9,-0.2 2.9,0.7 3,2.7l-8.4,0.7Zm33.9,-46.2l-7.2,2l-1.3,0.1c-3.4,0.3 -7.8,0.2 -13,-0.3c9.3,-0.6 18.2,-1.3 21.5,-1.8Zm-7.7,32l0.1,1.3l-9.9,0.9l-0.1,-1.3l9.9,-0.9Zm16.2,7.7c-0.1,-1.2 -2,-2 -5.9,-2.4l-9.9,2.8l-7.6,0.3c-1.7,-1.2 -2.6,-2 -2.7,-2.6l8.8,0.5l19.8,-3.2l10.1,0.4l0.1,1.6c-5,0.5 -9.2,1.4 -12.7,2.6Zm101.9,-26.3c1.2,0.1 2,0.1 2.3,0.1c3.5,-3.4 7.4,-6.1 11.9,-8c-3.6,15.8 -9.2,27.5 -16.9,35.1l-5.6,-3.4c4.7,-11.9 7.5,-19.8 8.3,-23.8Zm-17.2,29.5l1.4,-0.1c-1.9,3.6 -3.6,5.5 -5,5.6l-0.3,-3.8c0.9,0 2.2,-0.6 3.9,-1.7Zm-11.1,26.5c2.7,-10.8 5.3,-16.9 7.7,-18.5l0.1,1.3c-1.4,10 -3.6,15.3 -6.5,15.7l0.5,6.3c-2.4,3.4 -3.5,6 -3.4,8l-1.4,0.1l-0.8,-8.7c1.6,-0.2 2.9,-1.6 3.8,-4.2Zm-4.3,14.4c0.1,1.5 -0.9,5 -2.9,10.4l-1.4,0.1l-0.3,-3.8c1.9,-4.4 3.5,-6.6 4.6,-6.7Zm-80.7,234.2l-0.1,-1.1l2.6,-0.2l0.3,3.8c-1.4,0.1 -2.4,-0.7 -2.8,-2.5Zm115.3,3c-0.1,-0.9 -0.5,-1.3 -1.4,-1.2l-6.5,0.6l-0.1,-1.3l0.6,0l15.4,-1.3l0.1,1.3c-4.5,0.2 -7.2,0.9 -8.1,1.9Zm-7.7,-3.2c0.6,0.3 0.3,0.6 0,0.8c-0.3,-0.1 -0.7,-0.4 0,-0.8Zm0.8,-18l-8.6,0.7l-0.1,-1.3l7.8,-0.7l6.8,-1.7c0.1,0.8 0.5,1.1 1.4,1c8.1,-1.4 7.3,-1.8 11.2,-2.1c1.3,-0.1 2.1,0.7 2.2,2.3l-20.7,1.8Zm30.1,-2.6c-4.8,-0.5 -5.1,-0.9 -8.5,-0.6l-0.1,-1.1l7.7,-0.7l0.1,1.1c-0.8,0.1 2.1,0.3 0.8,1.3Zm0.6,-1.4l-0.1,-1.1l4.2,-0.4l0.1,1.1l-4.2,0.4Zm9.3,-0.8l-0.1,-1.1c0.7,-0.1 1.7,-0.6 3,-1.6c2.1,-0.2 3.2,1.2 3.4,2.8l-6.3,-0.1Zm11.9,-1.5l-0.1,-1.3l5.1,-0.4l0.1,1.3l-5.1,0.4Zm7.1,-0.6c-0.1,-1.5 0.5,-2.4 1.8,-2.6l1.7,2.2c-0.1,-0.7 0.2,-1.1 0.8,-1.2l1.3,2.4l-5.6,-0.8Zm98.4,-11.6l0.1,-0.1l0,-0.1c0,0 -0.1,0.1 -0.1,0.2Zm1.8,-1.3c0.8,-0.5 1.2,-1 -0.7,-1.3c-0.9,1 1,1.3 -1,1.4l0.1,0.9c0.2,-0.2 0.7,-0.5 1.1,-0.8l-1.1,0.9l0,0.1l-2.1,2.7l4.2,-1.5l0.5,0l-0.2,-2.5l-0.8,0.1Zm7.3,5.7l-0.8,0.1l0.2,2.5l5.9,-0.5c-0.1,-1.6 -4,-2.1 -5.3,-2.1Z" style="fill:#f9dc3e;fill-rule:nonzero;"/></g></svg>