<?xml version="1.0" encoding="UTF-8" standalone="no"?><!DOCTYPE svg PUBLIC "-//W3C//DTD SVG 1.1//EN" "http://www.w3.org/Graphics/SVG/1.1/DTD/svg11.dtd"><svg width="100%" height="100%" viewBox="0 0 448 448" version="1.1" xmlns="http://www.w3.org/2000/svg" xmlns:xlink="http://www.w3.org/1999/xlink" xml:space="preserve" xmlns:serif="http://www.serif.com/" style="fill-rule:evenodd;clip-rule:evenodd;stroke-linejoin:round;stroke-miterlimit:1.41421;"><path d="M397.8,0l-347.6,0c-27.5,0 -50.2,22.7 -50.2,50.2l0,347.6c0,27.5 22.7,50.2 50.2,50.2l347.6,0c27.5,0 50.2,-22.7 50.2,-50.2l0,-347.6c0,-27.5 -22.7,-50.2 -50.2,-50.2Zm-45.4,284.3c0,4.2 -3.6,6 -7.8,7.8c-16.7,7.2 -34.6,13.7 -53.8,13.7c-26.9,0 -39.4,-16.7 -71.7,-16.7c-23.3,0 -47.8,8.4 -67.5,17.3c-1.2,0.6 -2.4,0.6 -3.6,1.2l0,45.4c0,1.8 0,3.6 -0.6,4.8l0,1.2c-2.4,8.4 -10.2,14.3 -19.1,14.3c-11.3,0 -20.3,-9 -20.3,-20.3l0,-218.6c-7.8,-6 -13.1,-15.5 -13.1,-26.3c0,-18.5 14.9,-33.5 33.5,-33.5c18.5,0 33.5,14.9 33.5,33.5c0,10.8 -4.8,20.3 -13.1,26.3l0,18.5c1.8,-0.6 3.6,-1.2 5.4,-2.4c18.5,-7.8 40.6,-14.3 61.5,-14.3c22.7,0 40.6,6 60.9,13.7c4.2,1.8 8.4,2.4 13.1,2.4c22.7,0 47.8,-16.1 53.8,-16.1c4.8,0 9,3.6 9,7.8l0,140.3l-0.1,0Z" style="fill:#339af0;fill-rule:nonzero;"/></svg>