<?xml version="1.0" encoding="UTF-8" standalone="no"?><!DOCTYPE svg PUBLIC "-//W3C//DTD SVG 1.1//EN" "http://www.w3.org/Graphics/SVG/1.1/DTD/svg11.dtd"><svg width="100%" height="100%" viewBox="0 0 92 93" version="1.1" xmlns="http://www.w3.org/2000/svg" xmlns:xlink="http://www.w3.org/1999/xlink" xml:space="preserve" xmlns:serif="http://www.serif.com/" style="fill-rule:evenodd;clip-rule:evenodd;stroke-linejoin:round;stroke-miterlimit:1.41421;"><path d="M90.154,41.965l-40.119,-40.117c-2.31,-2.311 -6.057,-2.311 -8.369,0l-8.331,8.331l10.568,10.568c2.456,-0.83 5.272,-0.273 7.229,1.685c1.969,1.969 2.521,4.81 1.67,7.275l10.186,10.184c2.465,-0.849 5.306,-0.3 7.275,1.671c2.75,2.75 2.75,7.206 0,9.958c-2.752,2.751 -7.208,2.751 -9.961,0c-2.068,-2.071 -2.58,-5.11 -1.531,-7.659l-9.5,-9.499l0,24.997c0.67,0.332 1.303,0.774 1.861,1.332c2.75,2.749 2.75,7.205 0,9.959c-2.75,2.749 -7.209,2.749 -9.957,0c-2.75,-2.754 -2.75,-7.21 0,-9.959c0.68,-0.68 1.467,-1.193 2.307,-1.537l0,-25.228c-0.84,-0.344 -1.625,-0.853 -2.307,-1.537c-2.083,-2.082 -2.584,-5.139 -1.515,-7.697l-10.418,-10.42l-27.51,27.507c-2.31,2.313 -2.31,6.06 0,8.371l40.121,40.118c2.31,2.31 6.056,2.31 8.369,0l39.932,-39.931c2.311,-2.312 2.311,-6.061 0,-8.372Z" style="fill:#f05133;fill-rule:nonzero;"/></svg>