<?xml version="1.0" encoding="UTF-8" standalone="no"?><!DOCTYPE svg PUBLIC "-//W3C//DTD SVG 1.1//EN" "http://www.w3.org/Graphics/SVG/1.1/DTD/svg11.dtd"><svg width="100%" height="100%" viewBox="0 0 142 142" version="1.1" xmlns="http://www.w3.org/2000/svg" xmlns:xlink="http://www.w3.org/1999/xlink" xml:space="preserve" xmlns:serif="http://www.serif.com/" style="fill-rule:evenodd;clip-rule:evenodd;stroke-linejoin:round;stroke-miterlimit:1.41421;"><path id="Combined-Shape" d="M99.985,50.22c0.724,0.358 1.327,0.836 1.809,1.373c0.06,0.06 0.06,0.06 0.121,0.06l0.06,0l13.87,-5.912c0.06,-0.06 0.121,-0.119 0.121,-0.179c0,-0.06 0,-0.12 -0.061,-0.179l-12.965,-12.839c-0.06,-0.06 -0.121,-0.06 -0.121,-0.06l-0.06,0c-0.06,0 -0.121,0.06 -0.121,0.18l-2.834,17.376c0.06,0.06 0.121,0.18 0.181,0.18Zm-28.765,-11.645c0.663,1.015 1.085,2.21 1.206,3.404c0,0.06 0.06,0.119 0.12,0.179l20.625,8.778l0.06,0c0.06,0 0.12,0 0.12,-0.06c0.604,-0.477 1.327,-0.836 2.111,-1.074c0.06,0 0.121,-0.06 0.121,-0.18l3.377,-20.959c0,-0.06 0,-0.12 -0.061,-0.179l-12.905,-12.839c-0.06,-0.06 -0.06,-0.06 -0.12,-0.06c-0.061,0 -0.121,0.06 -0.121,0.12l-14.533,22.572c-0.061,0.119 -0.061,0.239 0,0.298Zm70.435,32.306l-22.131,-21.975c-0.061,-0.06 -0.121,-0.06 -0.121,-0.06l-0.06,0l-15.016,6.389c-0.06,0.06 -0.121,0.12 -0.121,0.18c0,0.059 0.061,0.179 0.121,0.179l37.027,15.705l0.06,0c0.06,0 0.121,0 0.121,-0.06l0.12,-0.12c0.121,0 0.121,-0.179 0,-0.238Zm-3.678,3.582l-35.52,-15.048l-0.06,0c-0.06,0 -0.12,0 -0.181,0.06c-0.965,1.314 -2.412,2.15 -4.1,2.389c-0.061,0 -0.181,0.059 -0.181,0.179l-3.8,23.348c0,0.06 0,0.12 0.061,0.179c1.326,1.015 2.11,2.508 2.291,4.18c0,0.12 0.061,0.179 0.181,0.179l21.469,4.479l0.06,0c0.06,0 0.121,0 0.121,-0.06l19.659,-19.526c0.06,-0.06 0.06,-0.12 0.06,-0.179c0,-0.06 0,-0.12 -0.06,-0.18Zm-47.038,-19.944l-19.418,-8.241l-0.06,0c-0.06,0 -0.121,0.06 -0.181,0.12c-1.327,2.03 -3.558,3.224 -5.97,3.224c-0.362,0 -0.724,-0.059 -1.146,-0.119l-0.06,0c-0.061,0 -0.121,0.06 -0.181,0.119l-15.981,24.782c-0.06,0.059 -0.06,0.179 0,0.239c0.06,0.059 0.121,0.059 0.181,0.059l0.06,0l42.636,-18.213c0.06,-0.059 0.12,-0.119 0.12,-0.179l0,-0.239l0,-0.298c0,-0.358 0.061,-0.717 0.121,-1.015c0,-0.12 -0.06,-0.179 -0.121,-0.239Zm23.398,43.352l-18.875,-3.881l-0.06,0c-0.06,0 -0.121,0.06 -0.181,0.06c-0.724,0.895 -1.628,1.612 -2.714,2.03c-0.06,0 -0.12,0.119 -0.12,0.179l-4.523,27.827c0,0.119 0.06,0.179 0.12,0.239l0.121,0c0.06,0 0.121,0 0.121,-0.06l26.172,-25.976c0.06,-0.059 0.06,-0.119 0.06,-0.179c0,-0.179 -0.06,-0.239 -0.121,-0.239Zm-26.353,-1.911c-1.809,-0.716 -3.135,-2.328 -3.618,-4.18c0,-0.059 -0.06,-0.119 -0.181,-0.179l-34.976,-7.225l-0.061,0c-0.06,0 -0.12,0.06 -0.181,0.119c-0.181,0.299 -0.301,0.538 -0.482,0.777c-0.06,0.059 -0.06,0.179 0,0.239l31.841,46.099c0.06,0.059 0.06,0.059 0.12,0.059c0.061,0 0.121,0 0.121,-0.059l1.93,-1.911c0,-0.06 0.06,-0.06 0.06,-0.12l5.427,-33.439c0.121,0 0.121,-0.12 0,-0.18Zm-38.052,-15.824c0,0.12 0.06,0.179 0.181,0.179l34.675,7.166l0.061,0c0.06,0 0.12,-0.06 0.18,-0.119c1.026,-1.792 2.835,-2.986 4.885,-3.105c0.121,0 0.181,-0.06 0.181,-0.18l3.739,-22.99c0,-0.059 0,-0.179 -0.121,-0.179c-0.241,-0.179 -0.482,-0.358 -0.784,-0.657c-0.06,-0.059 -0.12,-0.059 -0.12,-0.059l-0.061,0l-42.876,18.332c-0.121,0.06 -0.121,0.119 -0.121,0.239c0.061,0.478 0.181,0.896 0.181,1.373Zm-14.533,5.793c-0.181,-0.239 -0.362,-0.478 -0.543,-0.777c-0.06,-0.059 -0.121,-0.119 -0.181,-0.119l-0.06,0l-14.956,6.389c-0.06,0 -0.12,0.06 -0.12,0.12c0,0.059 0,0.119 0.06,0.179l7.297,7.225c0.06,0.06 0.12,0.06 0.12,0.06c0.061,0 0.121,-0.06 0.181,-0.12l8.262,-12.838c0,0 0,-0.06 -0.06,-0.119Zm9.89,2.328c-0.061,-0.059 -0.121,-0.119 -0.181,-0.119l-0.06,0c-1.086,0.478 -2.171,0.716 -3.317,0.716c-0.905,0 -1.749,-0.119 -2.654,-0.417l-0.06,0c-0.06,0 -0.121,0.059 -0.181,0.119l-8.684,13.495l-0.06,0.06c-0.06,0.06 -0.06,0.179 0,0.239l39.922,39.59c0.06,0.06 0.12,0.06 0.12,0.06c0.061,0 0.121,0 0.121,-0.06l6.995,-6.986c0.06,-0.06 0.06,-0.179 0,-0.239l-31.961,-46.458Zm-5.609,-15.585c0.061,0.06 0.121,0.119 0.181,0.119l0.061,0c0.603,-0.119 1.266,-0.238 1.869,-0.238c0.663,0 1.387,0.119 2.05,0.298l0.061,0c0.06,0 0.12,-0.06 0.181,-0.119l16.161,-25.08c0.061,-0.06 0.061,-0.179 0,-0.239c-1.266,-1.314 -1.99,-3.045 -1.99,-4.897c0,-0.537 0.061,-1.074 0.181,-1.612c0,-0.119 -0.06,-0.179 -0.12,-0.239c-2.051,-0.895 -20.203,-8.539 -20.203,-8.599l-0.06,0c-0.06,0 -0.12,0 -0.12,0.06l-15.378,15.287c-0.06,0.06 -0.06,0.179 0,0.239l17.126,25.02Zm1.749,-43.711c0,0 18.333,7.763 19.117,8.121l0.06,0c0.06,0 0.06,0 0.121,-0.059c1.266,-1.015 2.894,-1.613 4.523,-1.613c0.783,0 1.567,0.12 2.351,0.359l0.061,0c0.06,0 0.12,-0.06 0.181,-0.12l14.895,-23.109c0.06,-0.06 0.06,-0.179 0,-0.239l-12.363,-12.241c-0.06,-0.06 -0.06,-0.06 -0.12,-0.06c-0.06,0 -0.121,0 -0.121,0.06l-28.705,28.543c-0.06,0.06 -0.06,0.119 -0.06,0.179c-0.06,0.12 0,0.12 0.06,0.179Zm-7.116,48.07c0.061,0 0.121,-0.06 0.181,-0.119c0.362,-0.717 0.905,-1.374 1.448,-1.971c0.06,-0.06 0.06,-0.179 0,-0.239c-0.181,-0.239 -16.524,-23.885 -16.524,-23.945c-0.06,-0.06 -0.06,-0.06 -0.181,-0.119c-0.06,0 -0.12,0 -0.12,0.059l-19.057,18.87c-0.06,0.06 -0.06,0.119 -0.06,0.179c0,0.06 0.06,0.119 0.181,0.119l34.132,7.166c-0.06,0 -0.06,0 0,0Zm-1.568,4.12c0,-0.119 -0.06,-0.179 -0.181,-0.179l-29.609,-6.15l-0.06,0c-0.061,0 -0.121,0.059 -0.181,0.119c-0.061,0.06 0,0.179 0.06,0.239l13.207,13.137c0.06,0.06 0.12,0.06 0.12,0.06l0.061,0l16.402,-6.987c0.121,-0.119 0.181,-0.179 0.181,-0.239Z" style="fill:url(#_Radial1);"/><defs><radialGradient id="_Radial1" cx="0" cy="0" r="1" gradientUnits="userSpaceOnUse" gradientTransform="matrix(142,0,0,142,70.8729,0)"><stop offset="0" style="stop-color:#20c6b7;stop-opacity:1"/><stop offset="1" style="stop-color:#4d9abf;stop-opacity:1"/></radialGradient></defs></svg>