<?xml version="1.0" encoding="UTF-8" standalone="no"?><!DOCTYPE svg PUBLIC "-//W3C//DTD SVG 1.1//EN" "http://www.w3.org/Graphics/SVG/1.1/DTD/svg11.dtd"><svg width="100%" height="100%" viewBox="0 0 95 109" version="1.1" xmlns="http://www.w3.org/2000/svg" xmlns:xlink="http://www.w3.org/1999/xlink" xml:space="preserve" xmlns:serif="http://www.serif.com/" style="fill-rule:evenodd;clip-rule:evenodd;stroke-linejoin:round;stroke-miterlimit:1.41421;"><g><path d="M45.032,1.607l-42.134,24.315c-1.576,0.909 -2.545,2.588 -2.545,4.407l0,48.666c0,1.818 0.969,3.497 2.544,4.408l42.133,24.334c1.576,0.909 3.516,0.909 5.091,0l42.124,-24.334c1.574,-0.911 2.543,-2.59 2.543,-4.408l0,-48.668c0,-1.817 -0.969,-3.496 -2.545,-4.405l-42.123,-24.315c-0.787,-0.454 -1.666,-0.682 -2.544,-0.682c-0.879,0 -1.757,0.228 -2.544,0.682Z" style="fill:url(#_Linear1);fill-rule:nonzero;"/><path d="M1.4,82.086c0.401,0.525 0.906,0.975 1.497,1.317l36.143,20.874l6.017,3.46c0.9,0.519 1.927,0.739 2.936,0.665c0.337,-0.028 0.673,-0.09 1.001,-0.185l44.43,-81.357c-0.34,-0.365 -0.736,-0.682 -1.181,-0.938l-27.588,-15.925l-14.579,-8.39c-0.417,-0.24 -0.864,-0.413 -1.323,-0.526l-47.353,81.005Z" style="fill:url(#_Linear2);fill-rule:nonzero;"/><path d="M47.065,0.952c-0.705,0.07 -1.398,0.289 -2.033,0.655l-42.014,24.245l45.293,82.513c0.628,-0.091 1.243,-0.301 1.81,-0.628l42.124,-24.334c1.301,-0.753 2.189,-2.031 2.458,-3.477l-46.178,-78.89c-0.341,-0.068 -0.688,-0.102 -1.035,-0.102c-0.142,0 -0.284,0.006 -0.425,0.018Z" style="fill:url(#_Linear3);fill-rule:nonzero;"/></g><defs><linearGradient id="_Linear1" x1="0" y1="0" x2="1" y2="0" gradientUnits="userSpaceOnUse" gradientTransform="matrix(-38.0649,77.6524,-77.6524,-38.0649,64.7017,19.7146)"><stop offset="0" style="stop-color:#697e66;stop-opacity:1"/><stop offset="1" style="stop-color:#82a178;stop-opacity:1"/></linearGradient><linearGradient id="_Linear2" x1="0" y1="0" x2="1" y2="0" gradientUnits="userSpaceOnUse" gradientTransform="matrix(106.807,-78.9149,78.9149,106.807,41.1577,60.3534)"><stop offset="0" style="stop-color:#697e66;stop-opacity:1"/><stop offset="0.14" style="stop-color:#697e66;stop-opacity:1"/><stop offset="0.91" style="stop-color:#9ab48e;stop-opacity:1"/><stop offset="1" style="stop-color:#9ab48e;stop-opacity:1"/></linearGradient><linearGradient id="_Linear3" x1="0" y1="0" x2="1" y2="0" gradientUnits="userSpaceOnUse" gradientTransform="matrix(97.417,0,0,97.417,-1.1377,54.6515)"><stop offset="0" style="stop-color:#9ab48e;stop-opacity:1"/><stop offset="0.09" style="stop-color:#9ab48e;stop-opacity:1"/><stop offset="0.86" style="stop-color:#697e66;stop-opacity:1"/><stop offset="1" style="stop-color:#697e66;stop-opacity:1"/></linearGradient></defs></svg>