<?xml version="1.0" encoding="UTF-8" standalone="no"?><!DOCTYPE svg PUBLIC "-//W3C//DTD SVG 1.1//EN" "http://www.w3.org/Graphics/SVG/1.1/DTD/svg11.dtd"><svg width="100%" height="100%" viewBox="0 0 210 210" version="1.1" xmlns="http://www.w3.org/2000/svg" xmlns:xlink="http://www.w3.org/1999/xlink" xml:space="preserve" xmlns:serif="http://www.serif.com/" style="fill-rule:evenodd;clip-rule:evenodd;stroke-linejoin:round;stroke-miterlimit:1.41421;"><g id="Icon--Light-" serif:id="Icon-(Light)"><g id="line-11"><path id="line-11-dash-3" d="M210,205c0,-2.76 -2.24,-5 -5,-5l-50,0c-2.76,0 -5,2.24 -5,5c0,2.76 2.24,5 5,5l50,0c2.76,0 5,-2.24 5,-5Z" style="fill:#cfd4d7;fill-opacity:0.5;"/><path id="line-11-dash-2" d="M140,205c0,-2.76 -2.24,-5 -5,-5l-60,0c-2.76,0 -5,2.24 -5,5c0,2.76 2.24,5 5,5l60,0c2.76,0 5,-2.24 5,-5Z" style="fill:#cfd4d7;fill-opacity:0.5;"/><path id="line-11-dash-1" d="M60,205c0,-2.76 -2.24,-5 -5,-5l-50,0c-2.76,0 -5,2.24 -5,5c0,2.76 2.24,5 5,5l50,0c2.76,0 5,-2.24 5,-5Z" style="fill:#ea5e5e;"/></g><g id="line-10"><path id="line-10-dash-5" d="M210,185c0,-2.76 -2.24,-5 -5,-5l-40,0c-2.76,0 -5,2.24 -5,5c0,2.76 2.24,5 5,5l40,0c2.76,0 5,-2.24 5,-5Z" style="fill:#cfd4d7;fill-opacity:0.5;"/><path id="line-10-dash-4" d="M150,185c0,-2.76 -2.24,-5 -5,-5l-10,0c-2.76,0 -5,2.24 -5,5c0,2.76 2.24,5 5,5l10,0c2.76,0 5,-2.24 5,-5Z" style="fill:#cfd4d7;fill-opacity:0.5;"/><path id="line-10-dash-3" d="M120,185c0,-2.76 -2.24,-5 -5,-5l-40,0c-2.76,0 -5,2.24 -5,5c0,2.76 2.24,5 5,5l40,0c2.76,0 5,-2.24 5,-5Z" style="fill:#cfd4d7;fill-opacity:0.5;"/><path id="line-10-dash-2" d="M60,185c0,-2.76 -2.24,-5 -5,-5l-10,0c-2.76,0 -5,2.24 -5,5c0,2.76 2.24,5 5,5l10,0c2.76,0 5,-2.24 5,-5Z" style="fill:#f7b93e;"/><path id="line-10-dash-1" d="M30,185c0,-2.76 -2.24,-5 -5,-5l-20,0c-2.76,0 -5,2.24 -5,5c0,2.76 2.24,5 5,5l20,0c2.76,0 5,-2.24 5,-5Z" style="fill:#56b3b4;"/></g><g id="line-9"><path id="line-9-dash-3" d="M210,165c0,-2.76 -2.24,-5 -5,-5l-90,0c-2.76,0 -5,2.24 -5,5c0,2.76 2.24,5 5,5l90,0c2.76,0 5,-2.24 5,-5Z" style="fill:#cfd4d7;fill-opacity:0.5;"/><path id="line-9-dash-2" d="M100,165c0,-2.76 -2.24,-5 -5,-5l-20,0c-2.76,0 -5,2.24 -5,5c0,2.76 2.24,5 5,5l20,0c2.76,0 5,-2.24 5,-5Z" style="fill:#cfd4d7;fill-opacity:0.5;"/><path id="line-9-dash-1" d="M60,165c0,-2.76 -2.24,-5 -5,-5l-50,0c-2.76,0 -5,2.24 -5,5c0,2.76 2.24,5 5,5l50,0c2.76,0 5,-2.24 5,-5Z" style="fill:#bf85bf;"/></g><g id="line-8"><path id="line-8-dash-4" d="M210,145c0,-2.76 -2.24,-5 -5,-5l-20,0c-2.76,0 -5,2.24 -5,5c0,2.76 2.24,5 5,5l20,0c2.76,0 5,-2.24 5,-5Z" style="fill:#cfd4d7;fill-opacity:0.5;"/><path id="line-8-dash-3" d="M170,145c0,-2.76 -2.24,-5 -5,-5l-20,0c-2.76,0 -5,2.24 -5,5c0,2.76 2.24,5 5,5l20,0c2.76,0 5,-2.24 5,-5Z" style="fill:#cfd4d7;fill-opacity:0.5;"/><path id="line-8-dash-2" d="M130,145c0,-2.76 -2.24,-5 -5,-5l-90,0c-2.76,0 -5,2.24 -5,5c0,2.76 2.24,5 5,5l90,0c2.76,0 5,-2.24 5,-5Z" style="fill:#f7b93e;"/><path id="line-8-dash-1" d="M20,145c0,-2.76 -2.24,-5 -5,-5l-10,0c-2.76,0 -5,2.24 -5,5c0,2.76 2.24,5 5,5l10,0c2.76,0 5,-2.24 5,-5Z" style="fill:#bf85bf;"/></g><g id="line-7"><path id="line-7-dash-4" d="M210,125c0,-2.76 -2.24,-5 -5,-5l-30,0c-2.76,0 -5,2.24 -5,5c0,2.76 2.24,5 5,5l30,0c2.76,0 5,-2.24 5,-5Z" style="fill:#cfd4d7;fill-opacity:0.5;"/><path id="line-7-dash-3" d="M160,125c0,-2.76 -2.24,-5 -5,-5l-30,0c-2.76,0 -5,2.24 -5,5c0,2.76 2.24,5 5,5l30,0c2.76,0 5,-2.24 5,-5Z" style="fill:#bf85bf;"/><path id="line-7-dash-2" d="M110,125c0,-2.76 -2.24,-5 -5,-5l-40,0c-2.76,0 -5,2.24 -5,5c0,2.76 2.24,5 5,5l40,0c2.76,0 5,-2.24 5,-5Z" style="fill:#ea5e5e;"/><path id="line-7-dash-1" d="M50,125c0,-2.76 -2.24,-5 -5,-5l-40,0c-2.76,0 -5,2.24 -5,5c0,2.76 2.24,5 5,5l40,0c2.76,0 5,-2.24 5,-5Z" style="fill:#56b3b4;"/></g><g id="line-6"><path id="line-6-dash-4" d="M210,105c0,-2.76 -2.24,-5 -5,-5l-20,0c-2.76,0 -5,2.24 -5,5c0,2.76 2.24,5 5,5l20,0c2.76,0 5,-2.24 5,-5Z" style="fill:#cfd4d7;fill-opacity:0.5;"/><path id="line-6-dash-3" d="M170,105c0,-2.76 -2.24,-5 -5,-5l-80,0c-2.76,0 -5,2.24 -5,5c0,2.76 2.24,5 5,5l80,0c2.76,0 5,-2.24 5,-5Z" style="fill:#56b3b4;"/><path id="line-6-dash-2" d="M70,105c0,-2.76 -2.24,-5 -5,-5l-30,0c-2.76,0 -5,2.24 -5,5c0,2.76 2.24,5 5,5l30,0c2.76,0 5,-2.24 5,-5Z" style="fill:#f7b93e;"/><path id="line-6-dash-1" d="M20,105c0,-2.76 -2.24,-5 -5,-5l-10,0c-2.76,0 -5,2.24 -5,5c0,2.76 2.24,5 5,5l10,0c2.76,0 5,-2.24 5,-5Z" style="fill:#ea5e5e;"/></g><g id="line-5"><path id="line-5-dash-4" d="M210,85c0,-2.76 -2.24,-5 -5,-5l-10,0c-2.76,0 -5,2.24 -5,5c0,2.76 2.24,5 5,5l10,0c2.76,0 5,-2.24 5,-5Z" style="fill:#cfd4d7;fill-opacity:0.5;"/><path id="line-5-dash-3" d="M180,85c0,-2.76 -2.24,-5 -5,-5l-50,0c-2.76,0 -5,2.24 -5,5c0,2.76 2.24,5 5,5l50,0c2.76,0 5,-2.24 5,-5Z" style="fill:#f7b93e;"/><path id="line-5-dash-2" d="M110,85c0,-2.76 -2.24,-5 -5,-5l-30,0c-2.76,0 -5,2.24 -5,5c0,2.76 2.24,5 5,5l30,0c2.76,0 5,-2.24 5,-5Z" style="fill:#cfd4d7;fill-opacity:0.5;"/><path id="line-5-dash-1" d="M60,85c0,-2.76 -2.24,-5 -5,-5l-50,0c-2.76,0 -5,2.24 -5,5c0,2.76 2.24,5 5,5l50,0c2.76,0 5,-2.24 5,-5Z" style="fill:#bf85bf;"/></g><g id="line-4"><path id="line-4-dash-5" d="M210,65c0,-2.76 -2.24,-5 -5,-5l-10,0c-2.76,0 -5,2.24 -5,5c0,2.76 2.24,5 5,5l10,0c2.76,0 5,-2.24 5,-5Z" style="fill:#cfd4d7;fill-opacity:0.5;"/><path id="line-4-dash-4" d="M180,65c0,-2.76 -2.24,-5 -5,-5l-50,0c-2.76,0 -5,2.24 -5,5c0,2.76 2.24,5 5,5l50,0c2.76,0 5,-2.24 5,-5Z" style="fill:#ea5e5e;"/><path id="line-4-dash-3" d="M110,65c0,-2.76 -2.24,-5 -5,-5l-30,0c-2.76,0 -5,2.24 -5,5c0,2.76 2.24,5 5,5l30,0c2.76,0 5,-2.24 5,-5Z" style="fill:#cfd4d7;fill-opacity:0.5;"/><path id="line-4-dash-2" d="M60,65c0,-2.76 -2.24,-5 -5,-5l-10,0c-2.76,0 -5,2.24 -5,5c0,2.76 2.24,5 5,5l10,0c2.76,0 5,-2.24 5,-5Z" style="fill:#56b3b4;"/><path id="line-4-dash-1" d="M30,65c0,-2.76 -2.24,-5 -5,-5l-20,0c-2.76,0 -5,2.24 -5,5c0,2.76 2.24,5 5,5l20,0c2.76,0 5,-2.24 5,-5Z" style="fill:#f7b93e;"/></g><g id="line-3"><path id="line-3-dash-4" d="M210,45c0,-2.76 -2.24,-5 -5,-5l-20,0c-2.76,0 -5,2.24 -5,5c0,2.76 2.24,5 5,5l20,0c2.76,0 5,-2.24 5,-5Z" style="fill:#cfd4d7;fill-opacity:0.5;"/><path id="line-3-dash-3" d="M170,45c0,-2.76 -2.24,-5 -5,-5l-10,0c-2.76,0 -5,2.24 -5,5c0,2.76 2.24,5 5,5l10,0c2.76,0 5,-2.24 5,-5Z" style="fill:#56b3b4;"/><path id="line-3-dash-2" d="M140,45c0,-2.76 -2.24,-5 -5,-5l-40,0c-2.76,0 -5,2.24 -5,5c0,2.76 2.24,5 5,5l40,0c2.76,0 5,-2.24 5,-5Z" style="fill:#bf85bf;"/><path id="line-3-dash-1" d="M80,45c0,-2.76 -2.24,-5 -5,-5l-70,0c-2.76,0 -5,2.24 -5,5c0,2.76 2.24,5 5,5l70,0c2.76,0 5,-2.24 5,-5Z" style="fill:#56b3b4;"/></g><g id="line-2"><path id="line-2-dash-3" d="M210,25c0,-2.76 -2.24,-5 -5,-5l-30,0c-2.76,0 -5,2.24 -5,5c0,2.76 2.24,5 5,5l30,0c2.76,0 5,-2.24 5,-5Z" style="fill:#cfd4d7;fill-opacity:0.5;"/><path id="line-2-dash-2" d="M160,25c0,-2.76 -2.24,-5 -5,-5l-100,0c-2.76,0 -5,2.24 -5,5c0,2.76 2.24,5 5,5l100,0c2.76,0 5,-2.24 5,-5Z" style="fill:#f7b93e;"/><path id="line-2-dash-1" d="M40,25c0,-2.76 -2.24,-5 -5,-5l-30,0c-2.76,0 -5,2.24 -5,5c0,2.76 2.24,5 5,5l30,0c2.76,0 5,-2.24 5,-5Z" style="fill:#ea5e5e;"/></g><g id="line-1"><path id="line-1-dash-2" d="M210,5c0,-2.76 -2.24,-5 -5,-5l-60,0c-2.76,0 -5,2.24 -5,5c0,2.76 2.24,5 5,5l60,0c2.76,0 5,-2.24 5,-5Z" style="fill:#cfd4d7;fill-opacity:0.5;"/><path id="line-1-dash-1" d="M130,5c0,-2.76 -2.24,-5 -5,-5l-120,0c-2.76,0 -5,2.24 -5,5c0,2.76 2.24,5 5,5l120,0c2.76,0 5,-2.24 5,-5Z" style="fill:#56b3b4;"/></g></g></svg>