<?xml version="1.0" encoding="UTF-8" standalone="no"?><!DOCTYPE svg PUBLIC "-//W3C//DTD SVG 1.1//EN" "http://www.w3.org/Graphics/SVG/1.1/DTD/svg11.dtd"><svg width="100%" height="100%" viewBox="0 0 548 411" version="1.1" xmlns="http://www.w3.org/2000/svg" xmlns:xlink="http://www.w3.org/1999/xlink" xml:space="preserve" xmlns:serif="http://www.serif.com/" style="fill-rule:evenodd;clip-rule:evenodd;stroke-linejoin:round;stroke-miterlimit:1.41421;"><g><path d="M387.313,310.681c-1.738,-1.237 -1.449,-5.235 4.267,-17.687c2.244,-4.889 7.364,-13.12 16.265,-20.986c1.031,3.235 1.66,6.337 1.642,9.225c-0.115,19.266 -13.861,26.461 -22.174,29.448Zm-73.168,16.679c-2.33,1.219 -4.466,1.985 -5.459,1.394c-0.728,-0.435 0.961,-2.04 0.961,-2.04c0,0 11.881,-12.78 16.56,-18.6c2.722,-3.384 5.878,-7.401 9.317,-11.894c0.028,0.449 0.043,0.894 0.043,1.334c-0.035,15.312 -14.826,25.65 -21.422,29.806Zm-94.978,-45.318c-5.496,13.399 -16.999,47.678 -24,45.841c-6.01,-1.577 -9.67,-27.635 -1.2,-53.28c4.263,-12.909 13.37,-28.334 18.72,-34.321c8.613,-9.634 18.096,-12.785 20.4,-8.879c2.937,4.977 -10.474,42.24 -13.92,50.639Zm-114.96,78.152c-15.78,17.215 -37.827,23.721 -47.28,18.241c-10.208,-5.919 -6.165,-31.263 13.2,-49.531c11.803,-11.133 27.039,-21.387 37.148,-27.703c2.3,-1.384 5.68,-3.417 9.787,-5.878c0.681,-0.388 1.065,-0.603 1.065,-0.603l-0.015,-0.026c0.793,-0.474 1.605,-0.961 2.444,-1.462c7.046,26.002 0.214,48.894 -16.349,66.962Zm367.21,-123.798c-19.145,0.101 -35.727,4.697 -49.627,11.548c-5.084,-10.146 -10.229,-19.072 -11.093,-25.709c-1.009,-7.748 -2.178,-12.37 -0.96,-21.6c1.219,-9.23 6.559,-22.3 6.481,-23.279c-0.078,-0.979 -1.198,-5.681 -12.24,-5.761c-11.043,-0.079 -20.489,2.124 -21.6,5.04c-1.112,2.916 -3.238,9.478 -4.561,16.32c-1.934,10.013 -22.047,45.723 -33.467,64.405c-3.735,-7.291 -6.911,-13.72 -7.573,-18.804c-1.008,-7.748 -2.178,-12.37 -0.96,-21.601c1.219,-9.229 6.559,-22.301 6.481,-23.28c-0.078,-0.979 -1.197,-5.68 -12.24,-5.76c-11.043,-0.079 -20.489,2.124 -21.6,5.04c-1.112,2.916 -2.299,9.729 -4.561,16.32c-2.262,6.592 -28.998,66.161 -36,81.601c-3.568,7.867 -6.673,14.187 -8.865,18.504c-0.006,-0.011 -0.014,-0.024 -0.014,-0.024c0,0 -0.135,0.287 -0.368,0.772c-1.877,3.674 -2.993,5.707 -2.993,5.707c0,0 0.012,0.028 0.033,0.076c-1.488,2.698 -3.083,5.204 -3.873,5.204c-0.552,0 -1.657,-7.182 0.241,-17.04c3.978,-20.664 13.535,-52.89 13.44,-54c-0.05,-0.569 1.776,-6.184 -6.242,-9.12c-7.792,-2.852 -10.567,1.905 -11.278,1.92c-0.689,0.015 -1.201,1.681 -1.201,1.681c0,0 8.682,-36.24 -16.56,-36.24c-15.781,0 -37.648,17.263 -48.42,32.911c-6.798,3.708 -21.345,11.649 -36.779,20.129c-5.928,3.256 -11.977,6.585 -17.713,9.745c-0.39,-0.432 -0.779,-0.865 -1.18,-1.293c-30.608,-32.655 -87.189,-55.752 -84.788,-99.653c0.873,-15.96 6.42,-57.984 108.721,-108.959c83.8,-41.758 150.886,-30.267 162.48,-4.8c16.562,36.383 -35.854,104.004 -122.881,113.759c-33.158,3.717 -50.617,-9.133 -54.96,-13.92c-4.571,-5.038 -5.253,-5.265 -6.96,-4.32c-2.78,1.541 -1.018,5.989 0,8.64c2.599,6.763 13.261,18.755 31.44,24.72c15.992,5.248 54.922,8.131 102,-10.08c52.73,-20.396 93.904,-77.134 81.81,-124.559c-12.299,-48.235 -92.276,-64.092 -167.969,-37.2c-45.05,16.004 -93.817,41.122 -128.881,73.92c-41.691,38.996 -48.339,72.937 -45.6,87.119c9.734,50.391 79.189,83.206 107.002,107.526c-1.373,0.757 -2.66,1.468 -3.831,2.114c-13.945,6.898 -66.888,34.605 -80.131,63.88c-15.022,33.207 2.391,57.032 13.92,60.24c35.718,9.939 72.372,-7.938 92.07,-37.319c19.694,-29.374 17.289,-67.622 8.25,-85.081c-0.112,-0.217 -0.236,-0.429 -0.351,-0.644c3.6,-2.131 7.272,-4.298 10.911,-6.435c7.097,-4.167 14.063,-8.055 20.109,-11.345c-3.382,9.269 -5.86,20.379 -7.149,36.424c-1.514,18.85 6.211,43.215 16.32,52.801c4.451,4.22 9.806,4.319 13.2,4.319c11.763,0 17.131,-9.786 23.04,-21.36c7.249,-14.195 13.68,-30.72 13.68,-30.72c0,0 -8.072,44.64 13.921,44.64c8.013,0 16.073,-10.391 19.663,-15.689c0.011,0.058 0.016,0.089 0.016,0.089c0,0 0.208,-0.345 0.617,-1.037c0.832,-1.272 1.303,-2.082 1.303,-2.082c0,0 0.016,-0.084 0.042,-0.23c3.221,-5.593 10.365,-18.344 21.079,-39.371c13.842,-27.167 27.119,-61.2 27.119,-61.2c0,0 1.235,8.321 5.28,22.08c2.38,8.096 7.436,17.045 11.425,25.627c-3.211,4.455 -5.185,7.014 -5.185,7.014c0,0 0.019,0.047 0.054,0.133c-2.566,3.406 -5.443,7.082 -8.453,10.666c-10.925,13.012 -23.938,27.871 -25.681,32.16c-2.052,5.053 -1.567,8.77 2.4,11.76c2.898,2.184 8.057,2.523 13.44,2.16c9.818,-0.66 16.726,-3.095 20.134,-4.578c5.313,-1.879 11.5,-4.834 17.307,-9.102c10.717,-7.879 17.181,-19.15 16.56,-34.08c-0.344,-8.228 -2.968,-16.383 -6.287,-24.082c0.973,-1.398 1.948,-2.809 2.926,-4.238c16.895,-24.699 30,-51.84 30,-51.84c0,0 1.235,8.32 5.281,22.08c2.047,6.965 6.086,14.562 9.718,22.015c-15.886,12.907 -25.738,27.905 -29.159,37.745c-6.325,18.197 -1.371,26.443 7.921,28.32c4.209,0.851 10.153,-1.078 14.625,-2.971c5.564,-1.845 12.25,-4.918 18.495,-9.508c10.717,-7.879 21.021,-18.912 20.4,-33.841c-0.284,-6.797 -2.127,-13.543 -4.628,-20.024c13.466,-5.609 30.901,-8.728 53.108,-6.135c47.64,5.563 56.986,35.309 55.2,47.759c-1.787,12.451 -11.78,19.294 -15.121,21.361c-3.34,2.066 -4.36,2.783 -4.079,4.32c0.406,2.234 1.951,2.148 4.799,1.668c3.922,-0.662 25.017,-10.127 25.92,-33.108c1.147,-29.176 -26.806,-61.224 -76.32,-60.96Z" style="fill:#cd679a;fill-rule:nonzero;"/></g></svg>