<?xml version="1.0" encoding="UTF-8" standalone="no"?><!DOCTYPE svg PUBLIC "-//W3C//DTD SVG 1.1//EN" "http://www.w3.org/Graphics/SVG/1.1/DTD/svg11.dtd"><svg width="100%" height="100%" viewBox="0 0 412 395" version="1.1" xmlns="http://www.w3.org/2000/svg" xmlns:xlink="http://www.w3.org/1999/xlink" xml:space="preserve" xmlns:serif="http://www.serif.com/" style="fill-rule:evenodd;clip-rule:evenodd;stroke-linejoin:round;stroke-miterlimit:1.41421;"><g><path d="M208.805,393.054c45.057,-161.12 43.75,-161.848 76.32,-276.73l7.832,4.523c4.255,2.458 7.738,0.448 7.738,-4.455l0,-54.786c8.643,-30.27 15.416,-53.66 17.4,-60.693l35.287,0l58.618,54.304l-38.498,33.27l29.11,31.473l-191.86,273.094c-0.938,1.542 -2.244,1.19 -1.947,0Zm20.96,-347.278c1.733,0 3.148,0.958 3.148,2.147l0,28.077c0,1.186 -1.415,2.15 -3.147,2.15l-47.396,0c-1.742,0 -3.153,-0.96 -3.153,-2.15l0,-28.077c0,-1.185 1.41,-2.147 3.153,-2.147l47.396,0l-0.001,0Z"/><path d="M288.265,14.688l-52.14,30.1c0.605,0.92 0.973,1.98 0.973,3.136l0,28.078c0,1.457 -0.565,2.77 -1.496,3.83l52.663,30.402c3.59,2.073 6.535,0.377 6.535,-3.764l0,-88.014c0,-4.145 -2.944,-5.836 -6.535,-3.768Zm-113.235,61.312l0,-28.077c0,-1.15 0.368,-2.21 0.966,-3.13l-52.14,-30.105c-3.588,-2.068 -6.53,-0.376 -6.53,3.768l0,88.013c0,4.14 2.938,5.84 6.53,3.76l52.66,-30.405c-0.926,-1.06 -1.487,-2.37 -1.487,-3.827l0.001,0.003Z"/><path d="M201.248,393.054l1.947,0c-45.05,-161.12 -43.753,-161.848 -76.32,-276.73l-7.833,4.523c-4.253,2.458 -7.737,0.448 -7.737,-4.455l0,-54.786c-8.645,-30.27 -15.415,-53.66 -17.405,-60.693l-35.283,0l-58.617,54.304l38.494,33.27l-29.11,31.473l191.864,273.094Z"/><circle cx="204.572" cy="122.538" r="14.231"/><circle cx="204.572" cy="207.156" r="14.231"/><circle cx="204.572" cy="291.785" r="14.23"/></g></svg>