<?xml version="1.0" encoding="UTF-8" standalone="no"?><!DOCTYPE svg PUBLIC "-//W3C//DTD SVG 1.1//EN" "http://www.w3.org/Graphics/SVG/1.1/DTD/svg11.dtd"><svg width="100%" height="100%" viewBox="0 0 630 630" version="1.1" xmlns="http://www.w3.org/2000/svg" xmlns:xlink="http://www.w3.org/1999/xlink" xml:space="preserve" xmlns:serif="http://www.serif.com/" style="fill-rule:evenodd;clip-rule:evenodd;stroke-linejoin:round;stroke-miterlimit:1.41421;"><g><path d="M0,315l0,315l630,0l0,-630l-315,0l-315,0l0,315Z" style="fill:#fff;fill-rule:nonzero;"/><path d="M0,315l0,315l630,0l0,-630l-315,0l-315,0l0,315Zm507.7,-25.1c16,4 28.2,11.1 39.4,22.7c5.8,6.2 14.4,17.5 15.1,20.2c0.2,0.8 -27.2,19.2 -43.8,29.5c-0.6,0.4 -3,-2.2 -5.7,-6.2c-8.1,-11.8 -16.6,-16.9 -29.6,-17.8c-19.1,-1.3 -31.4,8.7 -31.3,25.4c0,4.9 0.7,7.8 2.7,11.8c4.2,8.7 12,13.9 36.5,24.5c45.1,19.4 64.4,32.2 76.4,50.4c13.4,20.3 16.4,52.7 7.3,76.8c-10,26.2 -34.8,44 -69.7,49.9c-10.8,1.9 -36.4,1.6 -48,-0.5c-25.3,-4.5 -49.3,-17 -64.1,-33.4c-5.8,-6.4 -17.1,-23.1 -16.4,-24.3c0.3,-0.4 2.9,-2 5.8,-3.7c2.8,-1.6 13.4,-7.7 23.4,-13.5l18.1,-10.5l3.8,5.6c5.3,8.1 16.9,19.2 23.9,22.9c20.1,10.6 47.7,9.1 61.3,-3.1c5.8,-5.3 8.2,-10.8 8.2,-18.9c0,-7.3 -0.9,-10.5 -4.7,-16c-4.9,-7 -14.9,-12.9 -43.3,-25.2c-32.5,-14 -46.5,-22.7 -59.3,-36.5c-7.4,-8 -14.4,-20.8 -17.3,-31.5c-2.4,-8.9 -3,-31.2 -1.1,-40.2c6.7,-31.4 30.4,-53.3 64.6,-59.8c11.1,-2.1 36.9,-1.3 47.8,1.4Zm-147.9,26.3l0.2,25.8l-41,0l-41,0l0,116.5l0,116.5l-29,0l-29,0l0,-233l-41,0l-41,0l0,-25.3c0,-14 0.3,-25.7 0.7,-26c0.3,-0.4 50.2,-0.6 110.7,-0.5l110.1,0.3l0.3,25.7Z" style="fill:#007acc;fill-rule:nonzero;"/></g></svg>