<?xml version="1.0" encoding="UTF-8" standalone="no"?><!DOCTYPE svg PUBLIC "-//W3C//DTD SVG 1.1//EN" "http://www.w3.org/Graphics/SVG/1.1/DTD/svg11.dtd"><svg width="100%" height="100%" viewBox="0 0 300 300" version="1.1" xmlns="http://www.w3.org/2000/svg" xmlns:xlink="http://www.w3.org/1999/xlink" xml:space="preserve" xmlns:serif="http://www.serif.com/" style="fill-rule:evenodd;clip-rule:evenodd;stroke-linejoin:round;stroke-miterlimit:1.41421;"><rect id="sno2wman" x="0" y="0" width="300" height="300" style="fill:none;"/><g><path d="M175,200l-50,0l50,-75c0,-13.807 -11.193,-25 -25,-25c-13.807,0 -25,11.193 -25,25l25,0l-25,25" style="fill:none;"/><circle cx="62.5" cy="137.5" r="37.5" style="fill:none;"/><circle cx="237.5" cy="137.5" r="37.5" style="fill:none;"/><path d="M275,100l0,100" style="fill:none;"/><path d="M25,225l50,50l25,-25l25,25l25,-25" style="fill:none;"/><path d="M150,250l25,-25l25,25l25,-25l50,50" style="fill:none;"/><path d="M50,125l50,-50l-75,0l50,-50" style="fill:none;"/><path d="M100,100l50,-50l25,0l-25,25" style="fill:none;"/><path d="M160,90l40,-40l50,25l25,-25" style="fill:none;"/><circle cx="87.5" cy="162.5" r="12.5" style="fill:none;"/><path d="M225,150l25,0" style="fill:none;"/><path d="M225,125l25,0" style="fill:none;"/><path d="M175,150l0,25" style="fill:none;"/><path d="M40,225l35,35" style="fill:none;"/><path d="M250,235l25,25" style="fill:none;"/><path d="M125,210l50,0" style="fill:none;"/><path d="M50,65l15,-15" style="fill:none;"/><path d="M150,40l25,0" style="fill:none;"/><path d="M50,140l25,-25" style="fill:none;"/><path d="M250,60l25,-25" style="fill:none;"/><path d="M150,265l20,-20" style="fill:none;"/></g></svg>